<svg width="41" height="46" viewBox="0 0 41 46" fill="none" xmlns="http://www.w3.org/2000/svg">
<path d="M0 4.02941C0 2.96075 0.424525 1.93585 1.18019 1.18019C1.93585 0.424526 2.96074 0 4.02941 0H22.8333C23.902 0 24.9269 0.424526 25.6826 1.18019C26.4382 1.93585 26.8627 2.96075 26.8627 4.02941V18.863C25.9539 18.9451 25.0546 19.1114 24.1765 19.36V4.02941C24.1765 3.67319 24.035 3.33156 23.7831 3.07967C23.5312 2.82778 23.1896 2.68627 22.8333 2.68627H4.02941C3.67319 2.68627 3.33156 2.82778 3.07967 3.07967C2.82778 3.33156 2.68627 3.67319 2.68627 4.02941V38.951C2.68627 39.3072 2.82778 39.6488 3.07967 39.9007C3.33156 40.1526 3.67319 40.2941 4.02941 40.2941H15.0431C15.5347 41.2558 16.1284 42.1557 16.808 42.9804H4.02941C2.96074 42.9804 1.93585 42.5559 1.18019 41.8002C0.424525 41.0445 0 40.0196 0 38.951V4.02941ZM13.4905 32.2353C13.4099 33.1289 13.4099 34.028 13.4905 34.9216H9.40196C9.04574 34.9216 8.70411 34.7801 8.45222 34.5282C8.20033 34.2763 8.05882 33.9347 8.05882 33.5784C8.05882 33.2222 8.20033 32.8806 8.45222 32.6287C8.70411 32.3768 9.04574 32.2353 9.40196 32.2353H13.4905ZM40.2941 33.5784C40.2941 36.7844 39.0205 39.8591 36.7536 42.1261C34.4866 44.3931 31.4119 45.6667 28.2059 45.6667C24.9999 45.6667 21.9252 44.3931 19.6582 42.1261C17.3912 39.8591 16.1176 36.7844 16.1176 33.5784C16.1176 30.3724 17.3912 27.2977 19.6582 25.0308C21.9252 22.7638 24.9999 21.4902 28.2059 21.4902C31.4119 21.4902 34.4866 22.7638 36.7536 25.0308C39.0205 27.2977 40.2941 30.3724 40.2941 33.5784ZM29.549 28.2059C29.549 27.8497 29.4075 27.508 29.1556 27.2561C28.9037 27.0043 28.5621 26.8627 28.2059 26.8627C27.8497 26.8627 27.508 27.0043 27.2561 27.2561C27.0043 27.508 26.8627 27.8497 26.8627 28.2059V32.2353H22.8333C22.4771 32.2353 22.1355 32.3768 21.8836 32.6287C21.6317 32.8806 21.4902 33.2222 21.4902 33.5784C21.4902 33.9347 21.6317 34.2763 21.8836 34.5282C22.1355 34.7801 22.4771 34.9216 22.8333 34.9216H26.8627V38.951C26.8627 39.3072 27.0043 39.6488 27.2561 39.9007C27.508 40.1526 27.8497 40.2941 28.2059 40.2941C28.5621 40.2941 28.9037 40.1526 29.1556 39.9007C29.4075 39.6488 29.549 39.3072 29.549 38.951V34.9216H33.5784C33.9346 34.9216 34.2763 34.7801 34.5282 34.5282C34.7801 34.2763 34.9216 33.9347 34.9216 33.5784C34.9216 33.2222 34.7801 32.8806 34.5282 32.6287C34.2763 32.3768 33.9346 32.2353 33.5784 32.2353H29.549V28.2059Z" fill="white"/>
</svg>
