<svg width="19" height="20" viewBox="0 0 19 20" fill="none" xmlns="http://www.w3.org/2000/svg">
<path d="M1 15L6 16L6.75 14.5M12 19V15L8 12L9 6M9 2C9 2.26522 9.10536 2.51957 9.29289 2.70711C9.48043 2.89464 9.73478 3 10 3C10.2652 3 10.5196 2.89464 10.7071 2.70711C10.8946 2.51957 11 2.26522 11 2C11 1.73478 10.8946 1.48043 10.7071 1.29289C10.5196 1.10536 10.2652 1 10 1C9.73478 1 9.48043 1.10536 9.29289 1.29289C9.10536 1.48043 9 1.73478 9 2Z" stroke="#000078" stroke-width="1.5" stroke-linecap="round" stroke-linejoin="round"/>
<path d="M4 10V7L9 6L12 9L15 10" stroke="#7B1085" stroke-width="1.5" stroke-linecap="round" stroke-linejoin="round"/>
<path d="M17.5 18C17.6326 18 17.7598 17.9473 17.8536 17.8536C17.9473 17.7598 18 17.6326 18 17.5C18 17.3674 17.9473 17.2402 17.8536 17.1464C17.7598 17.0527 17.6326 17 17.5 17C17.3674 17 17.2402 17.0527 17.1464 17.1464C17.0527 17.2402 17 17.3674 17 17.5C17 17.6326 17.0527 17.7598 17.1464 17.8536C17.2402 17.9473 17.3674 18 17.5 18Z" fill="#7B1085" stroke="#7B1085" stroke-width="1.5" stroke-linecap="round" stroke-linejoin="round"/>
</svg>
