<svg width="25" height="30" viewBox="0 0 25 30" fill="none" xmlns="http://www.w3.org/2000/svg">
<path d="M20.393 0.279426C21.3987 0.630782 22.362 1.28596 23.0742 2.09821C24.5408 3.76818 24.5212 5.62727 23.991 7.6703C23.9612 7.78459 23.8873 7.88238 23.7854 7.94217C23.6836 8.00196 23.5621 8.01884 23.4478 7.9891C23.3335 7.95936 23.2357 7.88544 23.1759 7.7836C23.1161 7.68176 23.0992 7.56034 23.1289 7.44605C23.6271 5.52703 23.5879 4.03273 22.4054 2.68518C21.7805 1.97836 20.9879 1.43998 20.1005 1.11958C19.2395 0.819894 18.4116 0.805426 17.7697 1.12578C17.664 1.1784 17.5418 1.1869 17.4298 1.1494C17.3179 1.1119 17.2254 1.03147 17.1728 0.925817C17.1202 0.820162 17.1117 0.697929 17.1492 0.58601C17.1867 0.47409 17.2671 0.381652 17.3728 0.329029C18.2999 -0.1329 19.3935 -0.0698628 20.394 0.279426H20.393ZM5.16797 23.7996C5.4421 23.7996 5.70501 23.6907 5.89884 23.4969C6.09268 23.3031 6.20158 23.0403 6.20158 22.7662C6.20158 22.4921 6.09268 22.2293 5.89884 22.0355C5.70501 21.8417 5.4421 21.7328 5.16797 21.7328C4.89385 21.7328 4.63094 21.8417 4.43711 22.0355C4.24327 22.2293 4.13437 22.4921 4.13437 22.7662C4.13437 23.0403 4.24327 23.3031 4.43711 23.4969C4.63094 23.6907 4.89385 23.7996 5.16797 23.7996Z" fill="#DC5A3C"/>
<path d="M20.2483 5.47742C20.4463 5.96933 20.4473 6.51863 20.251 7.01126C20.0547 7.50389 19.6761 7.90199 19.194 8.12292L19.4224 15.6016L21.4586 17.1641C21.6647 17.3215 21.8041 17.5505 21.8492 17.8058C21.8943 18.0611 21.8418 18.324 21.7021 18.5424C21.5624 18.7608 21.3457 18.9187 21.0949 18.9848C20.8442 19.0509 20.5778 19.0203 20.3485 18.8992C18.949 20.4111 17.2146 21.4672 15.2425 21.7411C13.966 21.9198 12.645 21.7628 11.3148 21.2471L10.4879 22.359L15.3789 26.4771C15.842 26.8667 16.181 27.3721 16.3691 27.9332H16.4415C17.072 27.9332 17.5815 28.3941 17.5712 28.9666C17.5712 29.5391 17.0616 30 16.4301 30H1.13998C0.509476 30 -9.15527e-05 29.5391 -9.15527e-05 28.9666C-9.15527e-05 28.4292 0.448494 27.99 1.03351 27.9384V22.3167C1.03329 21.7427 1.16726 21.1766 1.42473 20.6635C1.68219 20.1505 2.05603 19.7047 2.51642 19.3618C2.9768 19.0189 3.51097 18.7883 4.07633 18.6884C4.64168 18.5885 5.22255 18.6221 5.7726 18.7866L6.58501 17.716C5.69198 16.5617 5.17001 15.3154 5.0005 14.0164C4.73899 12.0116 5.33435 10.0285 6.44961 8.24589C6.25937 8.06326 6.14615 7.81481 6.13315 7.55144C6.12015 7.28807 6.20834 7.02969 6.37967 6.8292C6.551 6.62872 6.7925 6.50131 7.05473 6.47305C7.31696 6.44479 7.58007 6.51782 7.7902 6.67719L9.64552 8.10018L16.2761 6.50048C16.2136 6.00177 16.335 5.49738 16.6176 5.0817C16.9002 4.66603 17.3246 4.36755 17.8115 4.24214C18.2983 4.11672 18.8141 4.17296 19.2624 4.40033C19.7108 4.6277 20.0609 5.01061 20.2472 5.47742H20.2483ZM10.6998 8.9083L14.1128 11.528L16.9604 7.7974C16.8497 7.69951 16.7499 7.59003 16.6627 7.47085L10.6988 8.90934L10.6998 8.9083ZM14.9324 12.1573L18.364 14.7894L18.1655 8.30997C18.0759 8.30276 17.9868 8.28965 17.8989 8.2707L14.9324 12.1563V12.1573ZM8.09511 9.51594C7.24032 10.9472 6.87339 12.3929 7.05117 13.7487C7.24032 15.1996 8.07237 16.7043 9.92459 18.0994C11.7779 19.4965 13.4802 19.9006 14.9562 19.6949C16.2978 19.5089 17.5733 18.8 18.6896 17.6447L8.09511 9.51594ZM13.8998 27.9332L5.75916 21.0797C5.52363 20.8812 5.23628 20.7541 4.93094 20.7134C4.6256 20.6727 4.31499 20.7201 4.03567 20.8499C3.75635 20.9798 3.51995 21.1867 3.35431 21.4464C3.18868 21.7061 3.1007 22.0076 3.10073 22.3156V27.9332H13.8998Z" fill="#DC5A3C"/>
<path d="M21.0524 2.92093C20.0374 1.92887 18.609 1.69635 17.3966 2.21202C17.2879 2.25834 17.2021 2.34593 17.158 2.45552C17.1139 2.56511 17.1151 2.68773 17.1614 2.7964C17.2078 2.90508 17.2954 2.9909 17.405 3.03498C17.5146 3.07907 17.6372 3.07782 17.7459 3.0315C18.6297 2.65535 19.6747 2.81966 20.4302 3.55854C21.1899 4.29845 21.4359 5.41452 21.1372 6.39522C21.1202 6.4512 21.1145 6.50997 21.1202 6.56818C21.126 6.62639 21.1431 6.6829 21.1707 6.73448C21.1983 6.78605 21.2358 6.83169 21.281 6.86879C21.3263 6.90588 21.3784 6.93371 21.4344 6.95067C21.4904 6.96763 21.5491 6.97341 21.6074 6.96766C21.6656 6.9619 21.7221 6.94475 21.7737 6.91716C21.8253 6.88957 21.8709 6.85209 21.908 6.80686C21.9451 6.76164 21.973 6.70955 21.9899 6.65357C22.3786 5.37525 22.0643 3.90783 21.0524 2.92093Z" fill="#DC5A3C"/>
</svg>
