<svg width="22" height="22" viewBox="0 0 22 22" fill="none" xmlns="http://www.w3.org/2000/svg">
<path d="M1 13V15C1 17.828 1 19.243 1.879 20.121C2.757 21 4.172 21 7 21H15M15 21C17.828 21 19.243 21 20.121 20.121C21 19.243 21 17.828 21 15V11C21 8.172 21 6.757 20.121 5.879C19.243 5 17.828 5 15 5M15 21V13M15 5H7C4.172 5 2.757 5 1.879 5.879C1.237 6.52 1.064 7.447 1.017 9M15 5V9M8 1L11 4.5L14 1" stroke="#000078" stroke-width="1.5" stroke-linecap="round"/>
<path d="M19 15C19 14.7348 18.8946 14.4804 18.7071 14.2929C18.5196 14.1054 18.2652 14 18 14C17.7348 14 17.4804 14.1054 17.2929 14.2929C17.1054 14.4804 17 14.7348 17 15C17 15.2652 17.1054 15.5196 17.2929 15.7071C17.4804 15.8946 17.7348 16 18 16C18.2652 16 18.5196 15.8946 18.7071 15.7071C18.8946 15.5196 19 15.2652 19 15ZM19 11C19 10.7348 18.8946 10.4804 18.7071 10.2929C18.5196 10.1054 18.2652 10 18 10C17.7348 10 17.4804 10.1054 17.2929 10.2929C17.1054 10.4804 17 10.7348 17 11C17 11.2652 17.1054 11.5196 17.2929 11.7071C17.4804 11.8946 17.7348 12 18 12C18.2652 12 18.5196 11.8946 18.7071 11.7071C18.8946 11.5196 19 11.2652 19 11Z" fill="#7B1085"/>
</svg>
