<svg width="37" height="45" viewBox="0 0 37 45" fill="none" xmlns="http://www.w3.org/2000/svg">
<path d="M30.5802 0.419095C32.0883 0.946072 33.5328 1.92873 34.6007 3.14698C36.8001 5.65167 36.7706 8.44 35.9755 11.5042C35.9309 11.6756 35.82 11.8223 35.6673 11.912C35.5145 12.0017 35.3324 12.027 35.161 11.9824C34.9896 11.9378 34.8429 11.8269 34.7532 11.6742C34.6636 11.5214 34.6382 11.3393 34.6828 11.1679C35.4299 8.28966 35.371 6.04845 33.5979 4.02734C32.6609 2.96722 31.4723 2.15974 30.1415 1.67919C28.8504 1.22971 27.6089 1.20801 26.6464 1.68849C26.488 1.76742 26.3046 1.78016 26.1368 1.72391C25.9689 1.66767 25.8303 1.54704 25.7513 1.38858C25.6724 1.23011 25.6597 1.04678 25.7159 0.878921C25.7722 0.711059 25.8928 0.572417 26.0513 0.493492C27.4416 -0.199329 29.0814 -0.104783 30.5817 0.419095H30.5802ZM7.74964 35.6956C8.16071 35.6956 8.55494 35.5323 8.84561 35.2416C9.13628 34.951 9.29957 34.5567 9.29957 34.1457C9.29957 33.7346 9.13628 33.3404 8.84561 33.0497C8.55494 32.759 8.16071 32.5957 7.74964 32.5957C7.33857 32.5957 6.94434 32.759 6.65367 33.0497C6.363 33.3404 6.19971 33.7346 6.19971 34.1457C6.19971 34.5567 6.363 34.951 6.65367 35.2416C6.94434 35.5323 7.33857 35.6956 7.74964 35.6956Z" fill="#F8F8F8"/>
<path d="M30.3632 8.21528C30.6603 8.95307 30.6617 9.77693 30.3673 10.5158C30.073 11.2547 29.5053 11.8518 28.7823 12.1831L29.1248 23.4L32.1782 25.7435C32.4872 25.9794 32.6963 26.3229 32.7639 26.7058C32.8316 27.0887 32.7528 27.4831 32.5433 27.8106C32.3338 28.1382 32.0088 28.375 31.6328 28.4741C31.2568 28.5733 30.8573 28.5275 30.5135 28.3458C28.4149 30.6134 25.8141 32.1974 22.8569 32.6081C20.9427 32.8763 18.9619 32.6407 16.9671 31.8673L15.7272 33.535L23.0615 39.7115C23.7558 40.2958 24.2642 41.0537 24.5463 41.8953H24.6548C25.6003 41.8953 26.3644 42.5866 26.3489 43.4453C26.3489 44.3039 25.5848 44.9952 24.6377 44.9952H1.70958C0.764118 44.9952 0 44.3039 0 43.4453C0 42.6393 0.672671 41.9806 1.54993 41.9031V33.4715C1.5496 32.6106 1.75049 31.7615 2.13657 30.992C2.52266 30.2225 3.08324 29.554 3.7736 29.0396C4.46396 28.5253 5.26498 28.1794 6.11275 28.0296C6.96052 27.8798 7.83156 27.9302 8.65638 28.1769L9.87463 26.5711C8.53549 24.8399 7.75277 22.9706 7.49858 21.0224C7.10645 18.0155 7.99921 15.0412 9.67159 12.3676C9.38631 12.0936 9.21654 11.721 9.19704 11.326C9.17755 10.931 9.3098 10.5434 9.56671 10.2427C9.82362 9.94205 10.1858 9.75095 10.579 9.70856C10.9722 9.66618 11.3668 9.77572 11.6819 10.0147L14.464 12.149L24.4068 9.74971C24.3131 9.00172 24.4952 8.24522 24.9189 7.62177C25.3427 6.99832 25.9791 6.55066 26.7091 6.36256C27.4391 6.17445 28.2126 6.2588 28.8849 6.59982C29.5572 6.94083 30.0822 7.51515 30.3617 8.21528H30.3632ZM16.0449 13.3611L21.1628 17.2901L25.4329 11.6949C25.267 11.5481 25.1173 11.3839 24.9865 11.2051L16.0434 13.3626L16.0449 13.3611ZM22.3919 18.234L27.5377 22.1817L27.2401 12.4636C27.1056 12.4528 26.9721 12.4332 26.8402 12.4047L22.3919 18.2325V18.234ZM12.1391 14.2724C10.8573 16.4191 10.3071 18.5874 10.5736 20.6209C10.8573 22.7971 12.105 25.0538 14.8825 27.1462C17.6615 29.2417 20.2142 29.8477 22.4275 29.5393C24.4394 29.2603 26.352 28.197 28.0259 26.4642L12.1391 14.2724ZM20.8435 41.8953L8.63623 31.6162C8.28304 31.3185 7.85215 31.1279 7.39428 31.0668C6.93641 31.0058 6.47063 31.0768 6.05178 31.2716C5.63293 31.4663 5.27844 31.7767 5.03006 32.1662C4.78169 32.5557 4.64975 33.008 4.6498 33.4699V41.8953H20.8435Z" fill="#F8F8F8"/>
<path d="M31.5691 4.38072C30.0471 2.89278 27.9051 2.54405 26.087 3.31747C25.924 3.38694 25.7953 3.51831 25.7292 3.68268C25.6631 3.84705 25.6649 4.03096 25.7344 4.19395C25.8039 4.35694 25.9352 4.48566 26.0996 4.55178C26.264 4.61791 26.4479 4.61603 26.6109 4.54656C27.9361 3.98239 29.5031 4.22883 30.6361 5.33703C31.7753 6.44678 32.1442 8.12071 31.6962 9.5916C31.6708 9.67556 31.6621 9.76371 31.6707 9.85101C31.6794 9.93832 31.7051 10.0231 31.7465 10.1004C31.7879 10.1778 31.8441 10.2462 31.9119 10.3019C31.9797 10.3575 32.0579 10.3992 32.1418 10.4247C32.2258 10.4501 32.3139 10.4588 32.4012 10.4502C32.4886 10.4415 32.5733 10.4158 32.6507 10.3744C32.728 10.333 32.7965 10.2768 32.8521 10.209C32.9077 10.1412 32.9495 10.063 32.9749 9.97908C33.5577 8.06181 33.0865 5.86091 31.5691 4.38072Z" fill="#F8F8F8"/>
</svg>
