<svg width="28" height="24" viewBox="0 0 28 24" fill="none" xmlns="http://www.w3.org/2000/svg">
<path d="M15.156 0C21.792 0 27.168 5.4 27.168 12C27.168 18.6 21.792 24 15.156 24C10.944 24 7.26 21.816 5.112 18.516L7.008 17.016C8.7 19.764 11.712 21.6 15.168 21.6C17.7141 21.6 20.1559 20.5886 21.9562 18.7882C23.7566 16.9879 24.768 14.5461 24.768 12C24.768 9.45392 23.7566 7.01212 21.9562 5.21178C20.1559 3.41143 17.7141 2.4 15.168 2.4C10.272 2.4 6.24 6.072 5.652 10.8H8.964L4.476 15.276L0 10.8H3.228C3.828 4.74 8.94 0 15.156 0ZM18.708 9.888C19.308 9.9 19.8 10.38 19.8 10.992V16.524C19.8 17.124 19.308 17.628 18.696 17.628H12.06C11.448 17.628 10.956 17.124 10.956 16.524V10.992C10.956 10.38 11.448 9.9 12.048 9.888V8.676C12.048 6.84 13.548 5.352 15.372 5.352C17.208 5.352 18.708 6.84 18.708 8.676V9.888ZM15.372 7.032C14.472 7.032 13.728 7.764 13.728 8.676V9.888H17.028V8.676C17.028 7.764 16.284 7.032 15.372 7.032Z" fill="#DC5A3C"/>
</svg>
