<svg width="22" height="24" viewBox="0 0 22 24" fill="none" xmlns="http://www.w3.org/2000/svg">
<path d="M17.1429 13.7143C17.5314 13.7143 17.9086 13.76 18.2857 13.8171V10.2857C18.2857 9.67951 18.0449 9.09813 17.6162 8.66947C17.1876 8.24082 16.6062 8 16 8H14.8571V5.71429C14.8571 2.56 12.2971 0 9.14286 0C5.98857 0 3.42857 2.56 3.42857 5.71429V8H2.28571C1.6795 8 1.09812 8.24082 0.66947 8.66947C0.240816 9.09813 0 9.67951 0 10.2857V21.7143C0 22.9829 1.01714 24 2.28571 24H11.2114C10.6286 22.9943 10.2857 21.8286 10.2857 20.5714C10.2857 16.7886 13.36 13.7143 17.1429 13.7143ZM5.71429 5.71429C5.71429 3.81714 7.24571 2.28571 9.14286 2.28571C11.04 2.28571 12.5714 3.81714 12.5714 5.71429V8H5.71429V5.71429ZM9.14286 18.2857C8.69079 18.2857 8.24887 18.1517 7.87298 17.9005C7.4971 17.6493 7.20413 17.2924 7.03113 16.8747C6.85813 16.457 6.81287 15.9975 6.90106 15.5541C6.98926 15.1107 7.20695 14.7034 7.52661 14.3838C7.84628 14.0641 8.25355 13.8464 8.69694 13.7582C9.14032 13.67 9.5999 13.7153 10.0176 13.8883C10.4352 14.0613 10.7922 14.3542 11.0434 14.7301C11.2945 15.106 11.4286 15.5479 11.4286 16C11.4286 17.2686 10.4114 18.2857 9.14286 18.2857ZM21.1429 18.5714L15.7143 24L12.5714 20.5714L13.8971 19.2457L15.7143 21.0629L19.8171 16.96L21.1429 18.5714Z" fill="#DC5A3C"/>
</svg>
