<svg width="16" height="16" viewBox="0 0 16 16" fill="none" xmlns="http://www.w3.org/2000/svg">
<path d="M10.6667 8.60016V11.4002C10.6667 13.7335 9.73333 14.6668 7.4 14.6668H4.6C2.26667 14.6668 1.33333 13.7335 1.33333 11.4002V8.60016C1.33333 6.26683 2.26667 5.3335 4.6 5.3335H7.4C9.73333 5.3335 10.6667 6.26683 10.6667 8.60016Z" stroke="#000078" stroke-width="1.5" stroke-linecap="round" stroke-linejoin="round"/>
<path d="M14.6667 4.60016V7.40016C14.6667 9.7335 13.7333 10.6668 11.4 10.6668H10.6667V8.60016C10.6667 6.26683 9.73333 5.3335 7.4 5.3335H5.33333V4.60016C5.33333 2.26683 6.26667 1.3335 8.6 1.3335H11.4C13.7333 1.3335 14.6667 2.26683 14.6667 4.60016Z" stroke="#000078" stroke-width="1.5" stroke-linecap="round" stroke-linejoin="round"/>
</svg>
