<svg width="25" height="25" viewBox="0 0 25 25" fill="none" xmlns="http://www.w3.org/2000/svg">
<circle cx="12.5" cy="12.5" r="12.5" fill="#DC5A3C"/>
<path d="M12.4985 10.6658C11.4886 10.6658 10.6644 11.49 10.6644 12.4999C10.6644 13.5098 11.4886 14.334 12.4985 14.334C13.5084 14.334 14.3326 13.5098 14.3326 12.4999C14.3326 11.49 13.5084 10.6658 12.4985 10.6658ZM17.9994 12.4999C17.9994 11.7404 18.0063 10.9878 17.9636 10.2297C17.921 9.34908 17.7201 8.56756 17.0762 7.92364C16.4309 7.27834 15.6507 7.07884 14.7701 7.03618C14.0106 6.99353 13.258 7.00041 12.4999 7.00041C11.7404 7.00041 10.9878 6.99353 10.2297 7.03618C9.34908 7.07884 8.56756 7.27972 7.92364 7.92364C7.27834 8.56894 7.07884 9.34908 7.03618 10.2297C6.99353 10.9892 7.00041 11.7418 7.00041 12.4999C7.00041 13.258 6.99353 14.012 7.03618 14.7701C7.07884 15.6507 7.27972 16.4322 7.92364 17.0762C8.56894 17.7215 9.34908 17.921 10.2297 17.9636C10.9892 18.0063 11.7418 17.9994 12.4999 17.9994C13.2594 17.9994 14.012 18.0063 14.7701 17.9636C15.6507 17.921 16.4322 17.7201 17.0762 17.0762C17.7215 16.4309 17.921 15.6507 17.9636 14.7701C18.0076 14.012 17.9994 13.2594 17.9994 12.4999ZM12.4985 15.3219C10.9369 15.3219 9.67654 14.0615 9.67654 12.4999C9.67654 10.9382 10.9369 9.67792 12.4985 9.67792C14.0602 9.67792 15.3205 10.9382 15.3205 12.4999C15.3205 14.0615 14.0602 15.3219 12.4985 15.3219ZM15.4361 10.2214C15.0715 10.2214 14.777 9.92696 14.777 9.56234C14.777 9.19773 15.0715 8.90328 15.4361 8.90328C15.8007 8.90328 16.0951 9.19773 16.0951 9.56234C16.0952 9.64892 16.0783 9.73467 16.0452 9.81468C16.0121 9.89469 15.9636 9.96739 15.9023 10.0286C15.8411 10.0898 15.7684 10.1384 15.6884 10.1715C15.6084 10.2045 15.5227 10.2215 15.4361 10.2214Z" fill="white"/>
</svg>
