<svg width="25" height="25" viewBox="0 0 25 25" fill="none" xmlns="http://www.w3.org/2000/svg">
<circle cx="12.5" cy="12.5" r="12.5" fill="#DC5A3C"/>
<path d="M14.2591 14.7263L15.1691 13.8163C15.2917 13.6952 15.4467 13.6124 15.6155 13.5777C15.7842 13.5431 15.9594 13.5583 16.1197 13.6213L17.2288 14.0641C17.3908 14.1298 17.5297 14.2421 17.628 14.3867C17.7264 14.5313 17.7797 14.7017 17.7813 14.8766V16.9078C17.7803 17.0268 17.7553 17.1443 17.7078 17.2533C17.6602 17.3623 17.5911 17.4606 17.5046 17.5422C17.418 17.6238 17.3159 17.6871 17.2042 17.7281C17.0926 17.7692 16.9738 17.7873 16.855 17.7813C9.08348 17.2978 7.51535 10.7166 7.21879 8.19783C7.20502 8.07414 7.2176 7.94894 7.2557 7.83046C7.29379 7.71198 7.35654 7.60291 7.43982 7.51043C7.52309 7.41794 7.62501 7.34414 7.73885 7.29387C7.8527 7.2436 7.9759 7.218 8.10035 7.21877H10.0625C10.2376 7.21928 10.4086 7.27218 10.5534 7.37063C10.6982 7.46909 10.8102 7.60862 10.875 7.77127L11.3179 8.88033C11.383 9.04001 11.3996 9.21534 11.3656 9.38441C11.3316 9.55348 11.2486 9.70879 11.1269 9.83095L10.2169 10.741C10.2169 10.741 10.741 14.2875 14.2591 14.7263Z" fill="white"/>
</svg>
