<svg width="25" height="25" viewBox="0 0 25 25" fill="none" xmlns="http://www.w3.org/2000/svg">
<circle cx="12.2555" cy="12.2555" r="12.2555" fill="#DC5A3C"/>
<path d="M7 7.05882C7 6.77801 7.11155 6.50869 7.31012 6.31012C7.50869 6.11155 7.77801 6 8.05882 6H13C13.2808 6 13.5501 6.11155 13.7487 6.31012C13.9473 6.50869 14.0588 6.77801 14.0588 7.05882V10.9567C13.82 10.9783 13.5837 11.022 13.3529 11.0873V7.05882C13.3529 6.96522 13.3158 6.87545 13.2496 6.80926C13.1834 6.74307 13.0936 6.70588 13 6.70588H8.05882C7.96522 6.70588 7.87545 6.74307 7.80926 6.80926C7.74307 6.87545 7.70588 6.96522 7.70588 7.05882V16.2353C7.70588 16.3289 7.74307 16.4187 7.80926 16.4849C7.87545 16.5511 7.96522 16.5882 8.05882 16.5882H10.9529C11.0821 16.8409 11.2381 17.0774 11.4167 17.2941H8.05882C7.77801 17.2941 7.50869 17.1826 7.31012 16.984C7.11155 16.7854 7 16.5161 7 16.2353V7.05882ZM10.5449 14.4706C10.5238 14.7054 10.5238 14.9417 10.5449 15.1765H9.47059C9.37698 15.1765 9.28721 15.1393 9.22102 15.0731C9.15483 15.0069 9.11765 14.9171 9.11765 14.8235C9.11765 14.7299 9.15483 14.6402 9.22102 14.574C9.28721 14.5078 9.37698 14.4706 9.47059 14.4706H10.5449ZM17.5882 14.8235C17.5882 15.666 17.2536 16.4739 16.6579 17.0696C16.0622 17.6653 15.2542 18 14.4118 18C13.5693 18 12.7614 17.6653 12.1657 17.0696C11.57 16.4739 11.2353 15.666 11.2353 14.8235C11.2353 13.9811 11.57 13.1731 12.1657 12.5774C12.7614 11.9817 13.5693 11.6471 14.4118 11.6471C15.2542 11.6471 16.0622 11.9817 16.6579 12.5774C17.2536 13.1731 17.5882 13.9811 17.5882 14.8235ZM14.7647 13.4118C14.7647 13.3182 14.7275 13.2284 14.6613 13.1622C14.5951 13.096 14.5054 13.0588 14.4118 13.0588C14.3182 13.0588 14.2284 13.096 14.1622 13.1622C14.096 13.2284 14.0588 13.3182 14.0588 13.4118V14.4706H13C12.9064 14.4706 12.8166 14.5078 12.7504 14.574C12.6842 14.6402 12.6471 14.7299 12.6471 14.8235C12.6471 14.9171 12.6842 15.0069 12.7504 15.0731C12.8166 15.1393 12.9064 15.1765 13 15.1765H14.0588V16.2353C14.0588 16.3289 14.096 16.4187 14.1622 16.4849C14.2284 16.5511 14.3182 16.5882 14.4118 16.5882C14.5054 16.5882 14.5951 16.5511 14.6613 16.4849C14.7275 16.4187 14.7647 16.3289 14.7647 16.2353V15.1765H15.8235C15.9171 15.1765 16.0069 15.1393 16.0731 15.0731C16.1393 15.0069 16.1765 14.9171 16.1765 14.8235C16.1765 14.7299 16.1393 14.6402 16.0731 14.574C16.0069 14.5078 15.9171 14.4706 15.8235 14.4706H14.7647V13.4118Z" fill="white"/>
</svg>
