<svg width="22" height="22" viewBox="0 0 22 22" fill="none" xmlns="http://www.w3.org/2000/svg">
<circle cx="11" cy="11" r="11" fill="#DC5A3C"/>
<path d="M14.086 8.52478V7.48589C14.086 6.03145 12.9433 4.88867 11.4888 4.88867C10.0344 4.88867 8.89159 6.03145 8.89159 7.48589V8.52478C8.00853 8.52478 7.33325 9.20006 7.33325 10.0831V13.7192C7.33325 14.6023 8.00853 15.2776 8.89159 15.2776H14.086C14.9691 15.2776 15.6444 14.6023 15.6444 13.7192V10.0831C15.6444 9.20006 14.9691 8.52478 14.086 8.52478ZM9.93047 7.48589C9.93047 6.60284 10.6058 5.92756 11.4888 5.92756C12.3719 5.92756 13.0471 6.60284 13.0471 7.48589V8.52478H9.93047V7.48589ZM12.0602 11.9012L12.0083 11.9531V12.6803C12.0083 12.992 11.8005 13.1998 11.4888 13.1998C11.1771 13.1998 10.9694 12.992 10.9694 12.6803V11.9531C10.6577 11.6415 10.6058 11.174 10.9174 10.8623C11.2291 10.5506 11.6966 10.4987 12.0083 10.8103C12.3199 11.0701 12.3719 11.5895 12.0602 11.9012Z" fill="white"/>
</svg>
