<svg width="25" height="25" viewBox="0 0 25 25" fill="none" xmlns="http://www.w3.org/2000/svg">
<circle cx="12.5" cy="12.5" r="12.5" fill="#DC5A3C"/>
<path d="M19.8669 9.24075C19.3938 9.45042 18.8855 9.59209 18.3511 9.65612C18.9025 9.3262 19.315 8.80694 19.5116 8.19523C18.9936 8.50293 18.4266 8.71952 17.8354 8.83557C17.4378 8.41106 16.9112 8.12968 16.3373 8.03513C15.7634 7.94058 15.1744 8.03814 14.6616 8.31268C14.1488 8.58721 13.741 9.02335 13.5016 9.55338C13.2621 10.0834 13.2043 10.6777 13.3371 11.2439C12.2875 11.1912 11.2606 10.9184 10.3232 10.4432C9.38583 9.96794 8.55884 9.30091 7.89591 8.48537C7.66924 8.87637 7.53891 9.32972 7.53891 9.81252C7.53866 10.2472 7.64569 10.6751 7.85051 11.0585C8.05533 11.4418 8.35161 11.7687 8.71306 12.0101C8.29388 11.9968 7.88394 11.8835 7.51737 11.6797V11.7137C7.51733 12.3233 7.7282 12.9142 8.11419 13.386C8.50018 13.8578 9.03752 14.1816 9.63504 14.3023C9.24618 14.4075 8.83849 14.423 8.44276 14.3476C8.61134 14.8722 8.93973 15.3308 9.38195 15.6594C9.82416 15.9881 10.3581 16.1702 10.9089 16.1803C9.97382 16.9143 8.81897 17.3125 7.63014 17.3108C7.41956 17.3108 7.20915 17.2985 7 17.2739C8.20672 18.0498 9.61143 18.4616 11.0461 18.46C15.9025 18.46 18.5574 14.4377 18.5574 10.9493C18.5574 10.8359 18.5545 10.7215 18.5494 10.6081C19.0658 10.2347 19.5116 9.77223 19.8658 9.24245L19.8669 9.24075Z" fill="white"/>
</svg>
