<svg width="25" height="25" viewBox="0 0 25 25" fill="none" xmlns="http://www.w3.org/2000/svg">
<circle cx="12.2555" cy="12.2555" r="12.2555" fill="#DC5A3C"/>
<path d="M8.8629 9.04859L9.83161 10.0024C10.4481 9.39543 11.3084 9.01525 12.25 9.01525C13.1916 9.01525 14.0519 9.39543 14.6684 10.0024L15.6371 9.04859C14.77 8.19485 13.571 7.66794 12.25 7.66794C10.929 7.66794 9.73 8.19485 8.8629 9.04859ZM12.25 5C10.2042 5 8.34806 5.82039 7 7.14102L7.95516 8.08147C9.05258 7.00095 10.5768 6.33397 12.25 6.33397C13.9232 6.33397 15.4474 7.00095 16.5448 8.08147L17.5 7.14102C16.1075 5.7703 14.2191 5.00018 12.25 5ZM14.1874 11.0095L10.3126 11.0029C9.88581 11.0029 9.54032 11.343 9.54032 11.7632V18.2396C9.54032 18.6598 9.88581 19 10.3126 19H14.1806C14.6074 19 14.9529 18.6598 14.9529 18.2396V11.7632C14.9597 11.343 14.6142 11.0095 14.1874 11.0095ZM14.2823 17.6727H10.2177V12.3368H14.2823V17.6727Z" fill="#F8F8F8"/>
</svg>
