<svg width="25" height="25" viewBox="0 0 25 25" fill="none" xmlns="http://www.w3.org/2000/svg">
<circle cx="12.5" cy="12.5" r="12.5" fill="#DC5A3C"/>
<path d="M17.6688 9H8.74375C8.5465 9 8.35732 9.07836 8.21784 9.21784C8.07836 9.35732 8 9.5465 8 9.74375V15.6937C8 15.891 8.07836 16.0802 8.21784 16.2197C8.35732 16.3591 8.5465 16.4375 8.74375 16.4375H17.6688C17.866 16.4375 18.0552 16.3591 18.1947 16.2197C18.3341 16.0802 18.4125 15.891 18.4125 15.6937V9.74375C18.4125 9.5465 18.3341 9.35732 18.1947 9.21784C18.0552 9.07836 17.866 9 17.6688 9ZM16.8506 9.74375L13.2063 12.2651L9.56187 9.74375H16.8506ZM8.74375 15.6937V10.0822L12.9943 13.0237C13.0565 13.0669 13.1305 13.09 13.2063 13.09C13.282 13.09 13.356 13.0669 13.4182 13.0237L17.6688 10.0822V15.6937H8.74375Z" fill="white"/>
</svg>
