<svg width="22" height="22" viewBox="0 0 22 22" fill="none" xmlns="http://www.w3.org/2000/svg">
<circle cx="11" cy="11" r="11" fill="#DC5A3C"/>
<path d="M15 10.3333V9.66667C15 9.48986 14.9298 9.32029 14.8047 9.19526C14.6797 9.07024 14.5101 9 14.3333 9H7.66667C7.48986 9 7.32029 9.07024 7.19526 9.19526C7.07024 9.32029 7 9.48986 7 9.66667V13.6667C7 13.8435 7.07024 14.013 7.19526 14.1381C7.32029 14.2631 7.48986 14.3333 7.66667 14.3333H14.3333C14.5101 14.3333 14.6797 14.2631 14.8047 14.1381C14.9298 14.013 15 13.8435 15 13.6667V13M15 10.3333H12.3333C11.9797 10.3333 11.6406 10.4738 11.3905 10.7239C11.1405 10.9739 11 11.313 11 11.6667C11 12.0203 11.1405 12.3594 11.3905 12.6095C11.6406 12.8595 11.9797 13 12.3333 13H15M15 10.3333C15.3536 10.3333 15.6928 10.4738 15.9428 10.7239C16.1929 10.9739 16.3333 11.313 16.3333 11.6667C16.3333 12.0203 16.1929 12.3594 15.9428 12.6095C15.6928 12.8595 15.3536 13 15 13M9 9V7C9 6.46957 9.21071 5.96086 9.58579 5.58579C9.96086 5.21071 10.4696 5 11 5C11.5304 5 12.0391 5.21071 12.4142 5.58579C12.7893 5.96086 13 6.46957 13 7V9M14.6667 11.6667H15.3333M13.3333 11.6667H14M12 11.6667H12.6667" stroke="white" stroke-width="0.666667"/>
</svg>
