<svg width="25" height="25" viewBox="0 0 25 25" fill="none" xmlns="http://www.w3.org/2000/svg">
<circle cx="12.2555" cy="12.2555" r="12.2555" fill="#DC5A3C"/>
<path d="M6 8.82833C6 8.34343 6.16889 7.87839 6.46953 7.53551C6.77016 7.19263 7.17791 7 7.60307 7H17.2215C17.6466 7 18.0544 7.19263 18.355 7.53551C18.6556 7.87839 18.8245 8.34343 18.8245 8.82833V13.3992H6V8.82833ZM15.2176 9.7425C15.1113 9.7425 15.0094 9.79066 14.9342 9.87638C14.8591 9.9621 14.8169 10.0784 14.8169 10.1996V11.1138C14.8169 11.235 14.8591 11.3512 14.9342 11.437C15.0094 11.5227 15.1113 11.5708 15.2176 11.5708H16.8207C16.927 11.5708 17.0289 11.5227 17.1041 11.437C17.1792 11.3512 17.2215 11.235 17.2215 11.1138V10.1996C17.2215 10.0784 17.1792 9.9621 17.1041 9.87638C17.0289 9.79066 16.927 9.7425 16.8207 9.7425H15.2176ZM6 15.2275V16.1417C6 16.6266 6.16889 17.0916 6.46953 17.4345C6.77016 17.7774 7.17791 17.97 7.60307 17.97H17.2215C17.6466 17.97 18.0544 17.7774 18.355 17.4345C18.6556 17.0916 18.8245 16.6266 18.8245 16.1417V15.2275H6Z" fill="#F3F3F3"/>
</svg>
