<svg width="22" height="19" viewBox="0 0 22 19" fill="none" xmlns="http://www.w3.org/2000/svg">
<path d="M3.52975 9.42605V2C3.52975 1.44772 3.97747 1 4.52975 1H7.70405C8.25634 1 8.70405 1.44771 8.70405 2V9.42605C8.70405 9.97833 9.15177 10.426 9.70405 10.426H10.1632C11.0267 10.426 11.4842 11.4469 10.9096 12.0915L6.8907 16.5999C6.49046 17.0489 5.78729 17.0455 5.39139 16.5927L1.44974 12.0842C0.884368 11.4376 1.34362 10.426 2.20258 10.426H2.52975C3.08204 10.426 3.52975 9.97833 3.52975 9.42605Z" stroke="#000078" stroke-width="1.5"/>
<path d="M18.4703 9.01927V16.4453C18.4703 16.9976 18.0226 17.4453 17.4703 17.4453H14.296C13.7437 17.4453 13.296 16.9976 13.296 16.4453V9.01927C13.296 8.46698 12.8483 8.01927 12.296 8.01927H11.8369C10.9734 8.01927 10.5158 6.99843 11.0904 6.35384L15.1093 1.84542C15.5096 1.39643 16.2128 1.39982 16.6087 1.85264L20.5503 6.36107C21.1157 7.00774 20.6564 8.01927 19.7975 8.01927H19.4703C18.918 8.01927 18.4703 8.46698 18.4703 9.01927Z" stroke="#7B1085" stroke-width="1.5"/>
</svg>
