<svg width="33" height="47" viewBox="0 0 33 47" fill="none" xmlns="http://www.w3.org/2000/svg">
<path d="M17.9475 9.96582L11.0493 20.313H15.6481V27.2112L22.5462 16.864H17.9475V9.96582Z" fill="#F8F8F8"/>
<path fill-rule="evenodd" clip-rule="evenodd" d="M32.7896 18.3275C32.4407 21.2884 31.2505 24.0872 29.3601 26.3926C28.2541 27.7434 25.4431 31.603 24.8452 34.1093H8.74959C8.15175 31.6007 5.33731 27.7411 4.23131 26.3891C2.34175 24.0827 1.15278 21.283 0.805234 18.3217C0.462584 15.3668 0.978271 12.3756 2.29063 9.70597C3.61533 7.01595 5.67449 4.7559 8.22993 3.18723C10.8076 1.60323 13.7743 0.765827 16.7997 0.768285C19.8326 0.768285 22.8034 1.60756 25.3695 3.19068C27.9243 4.75995 29.9827 7.0204 31.3065 9.71057C32.6183 12.3808 33.1332 15.3724 32.7896 18.3275ZM23.2161 31.8099H10.3775C9.88778 30.6798 9.23361 29.5473 8.62427 28.585C7.82247 27.3204 6.9504 26.1017 6.01218 24.9348C4.40055 22.9684 3.38633 20.5812 3.08967 18.0562C2.79761 15.5397 3.23667 12.9923 4.35433 10.7188C5.48803 8.41846 7.24984 6.48605 9.43595 5.14515C11.6509 3.78446 14.2002 3.06527 16.7997 3.06766C19.4095 3.06766 21.9618 3.79082 24.1635 5.1486C26.3488 6.48978 28.1098 8.42218 29.2428 10.7223C30.3599 12.9964 30.7982 15.5441 30.5052 18.0608C30.2074 20.5853 29.1924 22.9716 27.5804 24.9371C26.6417 26.1034 25.77 27.3221 24.9694 28.5873C24.3601 29.5496 23.707 30.6798 23.2173 31.8099H23.2161Z" fill="#F8F8F8"/>
<path d="M8.74976 37.5584C8.74976 37.2535 8.87088 36.9611 9.08649 36.7455C9.3021 36.5298 9.59453 36.4087 9.89945 36.4087H23.6957C24.0006 36.4087 24.2931 36.5298 24.5087 36.7455C24.7243 36.9611 24.8454 37.2535 24.8454 37.5584C24.8454 37.8633 24.7243 38.1558 24.5087 38.3714C24.2931 38.587 24.0006 38.7081 23.6957 38.7081H9.89945C9.59453 38.7081 9.3021 38.587 9.08649 38.3714C8.87088 38.1558 8.74976 37.8633 8.74976 37.5584Z" fill="#F8F8F8"/>
<path fill-rule="evenodd" clip-rule="evenodd" d="M8.74976 41.0074H24.8454V44.4565C24.8454 45.0663 24.6032 45.6511 24.1719 46.0824C23.7407 46.5136 23.1559 46.7558 22.546 46.7558H11.0491C10.4393 46.7558 9.85445 46.5136 9.42323 46.0824C8.99201 45.6511 8.74976 45.0663 8.74976 44.4565V41.0074ZM11.0491 43.3068H22.546V44.4565H11.0491V43.3068Z" fill="#F8F8F8"/>
</svg>
