<svg width="25" height="24" viewBox="0 0 25 24" fill="none" xmlns="http://www.w3.org/2000/svg">
<g clip-path="url(#clip0_234_1388)">
<path d="M24.0232 12.1687C24.0232 5.76284 18.8302 0.569824 12.4244 0.569824C6.01858 0.569824 0.825562 5.76275 0.825562 12.1687C0.825562 17.9579 5.06711 22.7565 10.6121 23.6266V15.5215H7.66706V12.1687H10.6121V9.61329C10.6121 6.70633 12.3438 5.10062 14.9931 5.10062C16.2622 5.10062 17.5895 5.32716 17.5895 5.32716V8.18156H16.127C14.686 8.18156 14.2367 9.07567 14.2367 9.99297V12.1687H17.4536L16.9393 15.5215H14.2367V23.6266C19.7817 22.7565 24.0232 17.958 24.0232 12.1687Z" fill="#1877F2"/>
<path d="M16.9393 15.5214L17.4536 12.1686H14.2367V9.99294C14.2367 9.07554 14.6861 8.18153 16.127 8.18153H17.5895V5.32713C17.5895 5.32713 16.2622 5.10059 14.9931 5.10059C12.3437 5.10059 10.6121 6.7063 10.6121 9.61326V12.1686H7.66705V15.5214H10.6121V23.6266C11.2116 23.7205 11.8175 23.7676 12.4244 23.7675C13.0312 23.7676 13.6372 23.7205 14.2367 23.6266V15.5214H16.9393Z" fill="white"/>
</g>
<defs>
<clipPath id="clip0_234_1388">
<rect width="23.1977" height="23.1977" fill="white" transform="translate(0.825562 0.569824)"/>
</clipPath>
</defs>
</svg>
