<svg width="22" height="22" viewBox="0 0 22 22" fill="none" xmlns="http://www.w3.org/2000/svg">
<path d="M4.84615 11.001V6.95482C4.85817 6.15948 5.027 5.37433 5.34298 4.64436C5.65896 3.91439 6.11587 3.25393 6.68754 2.70085C7.2592 2.14776 7.93438 1.71292 8.67439 1.42122C9.4144 1.12952 10.2047 0.986713 11 1.00097C11.7953 0.986713 12.5856 1.12952 13.3256 1.42122C14.0656 1.71292 14.7408 2.14776 15.3125 2.70085C15.8841 3.25393 16.341 3.91439 16.657 4.64436C16.973 5.37433 17.1418 6.15948 17.1538 6.95482V11.001M14.0769 19.0779C14.893 19.0779 15.6756 18.7537 16.2526 18.1767C16.8297 17.5996 17.1538 16.817 17.1538 16.001V12.5394M14.0769 19.0779C14.0769 19.5879 13.8743 20.0771 13.5137 20.4377C13.153 20.7984 12.6639 21.001 12.1538 21.001H9.84615C9.33612 21.001 8.84698 20.7984 8.48633 20.4377C8.12569 20.0771 7.92308 19.5879 7.92308 19.0779C7.92308 18.5679 8.12569 18.0787 8.48633 17.7181C8.84698 17.3574 9.33612 17.1548 9.84615 17.1548H12.1538C12.6639 17.1548 13.153 17.3574 13.5137 17.7181C13.8743 18.0787 14.0769 18.5679 14.0769 19.0779ZM2.53846 8.69328H4.07692C4.28094 8.69328 4.47659 8.77432 4.62085 8.91858C4.76511 9.06284 4.84615 9.2585 4.84615 9.46251V14.0779C4.84615 14.2819 4.76511 14.4776 4.62085 14.6218C4.47659 14.7661 4.28094 14.8471 4.07692 14.8471H2.53846C2.13044 14.8471 1.73912 14.685 1.4506 14.3965C1.16209 14.108 1 13.7167 1 13.3087V10.2317C1 9.82371 1.16209 9.4324 1.4506 9.14388C1.73912 8.85537 2.13044 8.69328 2.53846 8.69328ZM19.4615 14.8471H17.9231C17.7191 14.8471 17.5234 14.7661 17.3791 14.6218C17.2349 14.4776 17.1538 14.2819 17.1538 14.0779V9.46251C17.1538 9.2585 17.2349 9.06284 17.3791 8.91858C17.5234 8.77432 17.7191 8.69328 17.9231 8.69328H19.4615C19.8696 8.69328 20.2609 8.85537 20.5494 9.14388C20.8379 9.4324 21 9.82371 21 10.2317V13.3087C21 13.7167 20.8379 14.108 20.5494 14.3965C20.2609 14.685 19.8696 14.8471 19.4615 14.8471Z" stroke="#7B1085" stroke-width="1.5" stroke-linecap="round" stroke-linejoin="round"/>
</svg>
