<svg width="30" height="30" viewBox="0 0 30 30" fill="none" xmlns="http://www.w3.org/2000/svg">
<path fill-rule="evenodd" clip-rule="evenodd" d="M8.16876 16.4281C8.77001 17.1631 10.3 19.8863 10.625 21.25H19.375C19.7 19.8875 21.2281 17.1644 21.8294 16.43C22.8568 15.1767 23.5036 13.6552 23.6931 12.0456C23.8801 10.4392 23.6004 8.81291 22.8875 7.36125C22.1678 5.89881 21.0489 4.66997 19.66 3.81688C18.2589 2.95511 16.6461 2.49923 15.0013 2.5C13.3531 2.5 11.7381 2.95625 10.3425 3.81563C8.9533 4.6684 7.83389 5.89702 7.11376 7.35938C6.40044 8.81048 6.12011 10.4363 6.30626 12.0425C6.49313 13.6469 7.13876 15.1675 8.16876 16.4281ZM15.625 7.5L11.875 13.125H14.375V16.875L18.125 11.25H15.625V7.5Z" fill="#DC5A3C"/>
<path d="M10.625 23.125C10.625 22.9592 10.6908 22.8003 10.8081 22.6831C10.9253 22.5658 11.0842 22.5 11.25 22.5H18.75C18.9158 22.5 19.0747 22.5658 19.1919 22.6831C19.3092 22.8003 19.375 22.9592 19.375 23.125C19.375 23.2908 19.3092 23.4497 19.1919 23.5669C19.0747 23.6842 18.9158 23.75 18.75 23.75H11.25C11.0842 23.75 10.9253 23.6842 10.8081 23.5669C10.6908 23.4497 10.625 23.2908 10.625 23.125ZM19.375 25H10.625V26.25C10.625 26.5815 10.7567 26.8995 10.9911 27.1339C11.2255 27.3683 11.5435 27.5 11.875 27.5H18.125C18.4565 27.5 18.7745 27.3683 19.0089 27.1339C19.2433 26.8995 19.375 26.5815 19.375 26.25V25Z" fill="#DC5A3C"/>
</svg>
