<svg width="25" height="25" viewBox="0 0 25 25" fill="none" xmlns="http://www.w3.org/2000/svg">
<path d="M12.5 20.5C12.9667 20.5 13.3609 20.3387 13.6827 20.016C14.0053 19.6942 14.1667 19.3 14.1667 18.8333C14.1667 18.3667 14.0053 17.9724 13.6827 17.6507C13.3609 17.328 12.9667 17.1667 12.5 17.1667C12.0333 17.1667 11.6391 17.328 11.3173 17.6507C10.9947 17.9724 10.8333 18.3667 10.8333 18.8333C10.8333 19.3 10.9947 19.6942 11.3173 20.016C11.6391 20.3387 12.0333 20.5 12.5 20.5ZM11.3 15.3667H13.7667C13.7667 14.5667 13.8556 13.9778 14.0333 13.6C14.2111 13.2222 14.5889 12.7444 15.1667 12.1667C15.9444 11.3889 16.4947 10.7387 16.8173 10.216C17.1391 9.69422 17.3 9.1 17.3 8.43333C17.3 7.25556 16.9 6.30533 16.1 5.58267C15.3 4.86089 14.2222 4.5 12.8667 4.5C11.6444 4.5 10.6058 4.8 9.75067 5.4C8.89467 6 8.3 6.83333 7.96667 7.9L10.1667 8.76667C10.3222 8.16667 10.6333 7.68311 11.1 7.316C11.5667 6.94978 12.1111 6.76667 12.7333 6.76667C13.3333 6.76667 13.8333 6.92756 14.2333 7.24933C14.6333 7.572 14.8333 8 14.8333 8.53333C14.8333 8.91111 14.7111 9.31111 14.4667 9.73333C14.2222 10.1556 13.8111 10.6222 13.2333 11.1333C12.5 11.7778 11.9947 12.3942 11.7173 12.9827C11.4391 13.572 11.3 14.3667 11.3 15.3667ZM3.16667 24.5C2.43333 24.5 1.80533 24.2391 1.28267 23.7173C0.760889 23.1947 0.5 22.5667 0.5 21.8333V3.16667C0.5 2.43333 0.760889 1.80533 1.28267 1.28267C1.80533 0.760889 2.43333 0.5 3.16667 0.5H21.8333C22.5667 0.5 23.1947 0.760889 23.7173 1.28267C24.2391 1.80533 24.5 2.43333 24.5 3.16667V21.8333C24.5 22.5667 24.2391 23.1947 23.7173 23.7173C23.1947 24.2391 22.5667 24.5 21.8333 24.5H3.16667Z" fill="#DC5A3C"/>
</svg>
