<svg width="17" height="17" viewBox="0 0 17 17" fill="none" xmlns="http://www.w3.org/2000/svg">
<circle cx="8.5" cy="8.5" r="8.5" fill="#DC5A3C"/>
<path d="M12.8714 8.12111C12.8714 5.45454 10.8023 3.64282 8.49997 3.64282C6.22197 3.64282 4.12854 5.41568 4.12854 8.15025C3.83711 8.31539 3.64282 8.62625 3.64282 8.98568V9.95711C3.64282 10.4914 4.07997 10.9285 4.61425 10.9285H5.09997V7.96568C5.09997 6.08597 6.62025 4.56568 8.49997 4.56568C10.3797 4.56568 11.9 6.08597 11.9 7.96568V11.4143H8.01425V12.3857H11.9C12.4343 12.3857 12.8714 11.9485 12.8714 11.4143V10.8217C13.158 10.6711 13.3571 10.3748 13.3571 10.0251V8.90797C13.3571 8.56797 13.158 8.27168 12.8714 8.12111Z" fill="white"/>
<path d="M7.04284 8.98559C7.3111 8.98559 7.52856 8.76813 7.52856 8.49987C7.52856 8.23162 7.3111 8.01416 7.04284 8.01416C6.77459 8.01416 6.55713 8.23162 6.55713 8.49987C6.55713 8.76813 6.77459 8.98559 7.04284 8.98559Z" fill="white"/>
<path d="M9.95715 8.98559C10.2254 8.98559 10.4429 8.76813 10.4429 8.49987C10.4429 8.23162 10.2254 8.01416 9.95715 8.01416C9.6889 8.01416 9.47144 8.23162 9.47144 8.49987C9.47144 8.76813 9.6889 8.98559 9.95715 8.98559Z" fill="white"/>
<path d="M11.4141 7.543C11.2983 6.86015 10.9446 6.24029 10.4157 5.79315C9.88675 5.34601 9.21668 5.10042 8.52408 5.09985C7.05237 5.09985 5.46894 6.319 5.59523 8.23271C6.19418 7.98761 6.72317 7.59812 7.13505 7.09895C7.54693 6.59978 7.82889 6.00645 7.9558 5.37185C8.59208 6.64928 9.89865 7.52842 11.4141 7.543Z" fill="white"/>
</svg>
