<svg width="24" height="24" viewBox="0 0 24 24" fill="none" xmlns="http://www.w3.org/2000/svg">
<path d="M3.00003 13H4.00003V20C4.00003 21.103 4.89703 22 6.00003 22H18C19.103 22 20 21.103 20 20V13H21C21.1978 12.9999 21.3911 12.9413 21.5555 12.8314C21.7199 12.7215 21.848 12.5653 21.9237 12.3826C21.9994 12.1999 22.0192 11.9989 21.9806 11.805C21.942 11.611 21.8468 11.4328 21.707 11.293L12.707 2.29299C12.6142 2.20004 12.504 2.1263 12.3827 2.07599C12.2614 2.02568 12.1314 1.99979 12 1.99979C11.8687 1.99979 11.7387 2.02568 11.6173 2.07599C11.496 2.1263 11.3858 2.20004 11.293 2.29299L2.29303 11.293C2.15322 11.4328 2.05802 11.611 2.01945 11.805C1.98088 11.9989 2.00068 12.1999 2.07635 12.3826C2.15202 12.5653 2.28016 12.7215 2.44457 12.8314C2.60898 12.9413 2.80228 12.9999 3.00003 13ZM12 4.41399L18 10.414V15L18.001 20H6.00003V10.414L12 4.41399Z" fill="black"/>
<path d="M12 18C15.703 18 16.901 14.461 16.95 14.311L15.05 13.69C15.042 13.713 14.269 16 12 16C9.76205 16 8.98005 13.779 8.94905 13.684L7.05005 14.311C7.09905 14.461 8.29705 18 12 18Z" fill="black"/>
</svg>
