<svg width="33" height="30" viewBox="0 0 33 30" fill="none" xmlns="http://www.w3.org/2000/svg">
<rect x="0.887207" width="32.0475" height="30" rx="3" fill="#DCEED8"/>
<path d="M17.4451 18.6617L14.9308 16.3081C14.8505 16.232 14.742 16.1877 14.6277 16.1844C14.5135 16.1811 14.4023 16.2191 14.3172 16.2905C14.232 16.3619 14.1795 16.4612 14.1704 16.5678C14.1614 16.6745 14.1965 16.7803 14.2685 16.8634L14.3013 16.8974L17.5744 19.9614C17.6519 20.034 17.7553 20.0772 17.8648 20.0828C17.9743 20.0884 18.0821 20.056 18.1676 19.9917L18.2039 19.9614L21.477 16.8974C21.5584 16.8222 21.6057 16.7206 21.6092 16.6137C21.6127 16.5068 21.5721 16.4027 21.4958 16.323C21.4196 16.2433 21.3135 16.1941 21.1995 16.1856C21.0856 16.1771 20.9726 16.21 20.8838 16.2774L20.8478 16.3081L18.3353 18.6601V15.6667C18.3353 14.5821 18.0786 13.5734 17.5876 12.6987L17.5081 12.5621C16.9773 11.6722 16.1929 10.9379 15.2424 10.4407C14.2749 9.93275 13.1451 9.66675 11.9258 9.66675C11.8078 9.66675 11.6946 9.71065 11.6111 9.78879C11.5276 9.86693 11.4807 9.97291 11.4807 10.0834C11.4807 10.1939 11.5276 10.2999 11.6111 10.378C11.6946 10.4562 11.8078 10.5001 11.9258 10.5001C12.9959 10.5001 13.9754 10.7307 14.8073 11.1677C15.6149 11.5897 16.2814 12.2134 16.7322 12.9694C17.1727 13.7051 17.4173 14.5637 17.443 15.5007L17.4451 15.6667V18.6617Z" fill="#309B15"/>
</svg>
