<svg width="35" height="35" viewBox="0 0 35 35" fill="none" xmlns="http://www.w3.org/2000/svg">
<path d="M17.5001 13.8833C16.7848 13.8833 16.0855 14.0954 15.4908 14.4928C14.896 14.8902 14.4325 15.4551 14.1587 16.1159C13.885 16.7768 13.8134 17.504 13.9529 18.2055C14.0925 18.9071 14.4369 19.5515 14.9427 20.0573C15.4485 20.5631 16.0929 20.9076 16.7945 21.0471C17.4961 21.1867 18.2233 21.1151 18.8841 20.8413C19.545 20.5676 20.1098 20.104 20.5072 19.5093C20.9046 18.9145 21.1167 18.2153 21.1167 17.5C21.1167 17.025 21.0232 16.5547 20.8414 16.1159C20.6597 15.6771 20.3933 15.2784 20.0574 14.9426C19.7216 14.6068 19.3229 14.3403 18.8841 14.1586C18.4453 13.9768 17.975 13.8833 17.5001 13.8833ZM31.9813 10.3104C31.9737 9.18419 31.7663 8.06829 31.3688 7.01454C31.0761 6.24346 30.6232 5.54322 30.04 4.96002C29.4568 4.37682 28.7566 3.92392 27.9855 3.63121C26.9317 3.23376 25.8158 3.02638 24.6897 3.01871C22.8084 2.91663 22.2542 2.91663 17.5001 2.91663C12.7459 2.91663 12.1917 2.91663 10.3105 3.01871C9.18431 3.02638 8.06841 3.23376 7.01466 3.63121C6.24359 3.92392 5.54334 4.37682 4.96014 4.96002C4.37694 5.54322 3.92404 6.24346 3.63133 7.01454C3.23388 8.06829 3.0265 9.18419 3.01883 10.3104C2.91675 12.1916 2.91675 12.7458 2.91675 17.5C2.91675 22.2541 2.91675 22.8083 3.01883 24.6895C3.03453 25.8197 3.24163 26.939 3.63133 28C3.92275 28.7675 4.37527 29.4637 4.95841 30.0416C5.53911 30.6283 6.24086 31.0812 7.01466 31.3687C8.06841 31.7662 9.18431 31.9735 10.3105 31.9812C12.1917 32.0833 12.7459 32.0833 17.5001 32.0833C22.2542 32.0833 22.8084 32.0833 24.6897 31.9812C25.8158 31.9735 26.9317 31.7662 27.9855 31.3687C28.7593 31.0812 29.461 30.6283 30.0417 30.0416C30.6249 29.4637 31.0774 28.7675 31.3688 28C31.7659 26.941 31.9732 25.8204 31.9813 24.6895C32.0834 22.8083 32.0834 22.2541 32.0834 17.5C32.0834 12.7458 32.0834 12.1916 31.9813 10.3104ZM28.2772 21.977C28.2304 22.877 28.0383 23.7634 27.7084 24.602C27.4253 25.3016 27.0044 25.9371 26.4708 26.4707C25.9372 27.0043 25.3017 27.4252 24.6022 27.7083C23.7556 28.0198 22.8642 28.1922 21.9626 28.2187H13.0376C12.1359 28.1922 11.2445 28.0198 10.398 27.7083C9.67482 27.4395 9.02174 27.0108 8.48758 26.4541C7.95918 25.9309 7.5511 25.2989 7.29175 24.602C6.97902 23.7564 6.81138 22.864 6.79591 21.9625V13.0375C6.81138 12.136 6.97902 11.2435 7.29175 10.3979C7.56049 9.67469 7.98923 9.02161 8.54591 8.48746C9.0714 7.96191 9.70276 7.55426 10.398 7.29163C11.2445 6.98013 12.1359 6.80777 13.0376 6.78121H21.9626C22.8642 6.80777 23.7556 6.98013 24.6022 7.29163C25.3253 7.56037 25.9784 7.98911 26.5126 8.54579C27.041 9.06897 27.4491 9.70098 27.7084 10.3979C28.0199 11.2444 28.1923 12.1358 28.2188 13.0375V17.5C28.2188 20.5041 28.3209 20.8104 28.2772 21.9625V21.977ZM25.9438 11.127C25.7702 10.656 25.4964 10.2282 25.1414 9.87319C24.7864 9.51819 24.3586 9.24443 23.8876 9.07079C23.2408 8.84659 22.5595 8.73799 21.8751 8.74996H13.1251C12.4371 8.75668 11.7558 8.88505 11.1126 9.12913C10.6487 9.29487 10.2255 9.55746 9.87093 9.89942C9.5164 10.2414 9.23871 10.6549 9.05633 11.1125C8.84455 11.762 8.74108 12.4419 8.75008 13.125V21.875C8.76454 22.5621 8.89266 23.2421 9.12925 23.8875C9.30288 24.3585 9.57664 24.7863 9.93164 25.1413C10.2866 25.4963 10.7144 25.7701 11.1855 25.9437C11.8077 26.1725 12.4625 26.3005 13.1251 26.3229H21.8751C22.563 26.3161 23.2444 26.1878 23.8876 25.9437C24.3586 25.7701 24.7864 25.4963 25.1414 25.1413C25.4964 24.7863 25.7702 24.3585 25.9438 23.8875C26.1879 23.2442 26.3163 22.5629 26.323 21.875V13.125C26.3234 12.4363 26.1948 11.7537 25.9438 11.1125V11.127ZM17.5001 23.0708C16.7692 23.0708 16.0455 22.9266 15.3704 22.6465C14.6954 22.3663 14.0822 21.9557 13.5661 21.4383C13.0499 20.9208 12.641 20.3065 12.3626 19.6307C12.0842 18.9549 11.9419 18.2308 11.9438 17.5C11.9438 16.3975 12.2709 15.3199 12.8837 14.4035C13.4965 13.487 14.3674 12.773 15.3862 12.3518C16.405 11.9306 17.5258 11.8211 18.6069 12.0373C19.6879 12.2534 20.6805 12.7854 21.459 13.566C22.2375 14.3465 22.7669 15.3405 22.9802 16.4221C23.1935 17.5037 23.0811 18.6243 22.6572 19.6419C22.2334 20.6596 21.5171 21.5287 20.599 22.139C19.681 22.7494 18.6025 23.0737 17.5001 23.0708ZM23.3334 13.0229C23.011 12.9888 22.7127 12.8365 22.4959 12.5955C22.279 12.3546 22.1591 12.0418 22.1591 11.7177C22.1591 11.3935 22.279 11.0808 22.4959 10.8398C22.7127 10.5988 23.011 10.4466 23.3334 10.4125C23.6558 10.4466 23.9541 10.5988 24.171 10.8398C24.3878 11.0808 24.5078 11.3935 24.5078 11.7177C24.5078 12.0418 24.3878 12.3546 24.171 12.5955C23.9541 12.8365 23.6558 12.9888 23.3334 13.0229Z" fill="#333333"/>
</svg>
