<svg width="24" height="24" viewBox="0 0 24 24" fill="none" xmlns="http://www.w3.org/2000/svg">
<path d="M12.4011 9.43413C11.927 9.43413 11.4636 9.57472 11.0694 9.83811C10.6752 10.1015 10.3679 10.4759 10.1865 10.9139C10.0051 11.3519 9.95762 11.8339 10.0501 12.2989C10.1426 12.7639 10.3709 13.191 10.7061 13.5262C11.0414 13.8615 11.4685 14.0898 11.9335 14.1823C12.3985 14.2748 12.8805 14.2273 13.3185 14.0459C13.7565 13.8644 14.1309 13.5572 14.3943 13.163C14.6576 12.7688 14.7982 12.3053 14.7982 11.8312C14.7982 11.5164 14.7362 11.2047 14.6158 10.9139C14.4953 10.6231 14.3187 10.3588 14.0961 10.1362C13.8736 9.91363 13.6093 9.73706 13.3185 9.6166C13.0276 9.49613 12.7159 9.43413 12.4011 9.43413ZM21.9992 7.06604C21.9941 6.31961 21.8566 5.58 21.5932 4.88159C21.3992 4.37052 21.099 3.90641 20.7125 3.51987C20.326 3.13333 19.8618 2.83315 19.3508 2.63915C18.6524 2.37572 17.9128 2.23827 17.1663 2.23319C15.9195 2.16553 15.5522 2.16553 12.4011 2.16553C9.25012 2.16553 8.88283 2.16553 7.63595 2.23319C6.88953 2.23827 6.14992 2.37572 5.4515 2.63915C4.94044 2.83315 4.47633 3.13333 4.08979 3.51987C3.70325 3.90641 3.40307 4.37052 3.20906 4.88159C2.94564 5.58 2.80819 6.31961 2.8031 7.06604C2.73544 8.31291 2.73544 8.68021 2.73544 11.8312C2.73544 14.9822 2.73544 15.3495 2.8031 16.5964C2.81351 17.3455 2.95077 18.0873 3.20906 18.7905C3.40221 19.2993 3.70214 19.7607 4.08864 20.1437C4.47352 20.5326 4.93863 20.8328 5.4515 21.0233C6.14992 21.2867 6.88953 21.4242 7.63595 21.4293C8.88283 21.4969 9.25012 21.4969 12.4011 21.4969C15.5522 21.4969 15.9195 21.4969 17.1663 21.4293C17.9128 21.4242 18.6524 21.2867 19.3508 21.0233C19.8637 20.8328 20.3288 20.5326 20.7136 20.1437C21.1001 19.7607 21.4001 19.2993 21.5932 18.7905C21.8564 18.0887 21.9938 17.346 21.9992 16.5964C22.0668 15.3495 22.0668 14.9822 22.0668 11.8312C22.0668 8.68021 22.0668 8.31291 21.9992 7.06604ZM19.5441 14.7986C19.5131 15.3951 19.3858 15.9826 19.1671 16.5384C18.9795 17.0021 18.7005 17.4233 18.3469 17.7769C17.9932 18.1306 17.572 18.4096 17.1083 18.5972C16.5473 18.8037 15.9564 18.9179 15.3588 18.9355H9.44344C8.84584 18.9179 8.25503 18.8037 7.69395 18.5972C7.21463 18.4191 6.78177 18.1349 6.42774 17.766C6.07752 17.4192 5.80705 17.0003 5.63515 16.5384C5.42788 15.9779 5.31677 15.3864 5.30652 14.7889V8.87352C5.31677 8.27601 5.42788 7.68453 5.63515 7.12403C5.81327 6.64471 6.09744 6.21186 6.4664 5.85782C6.81469 5.5095 7.23315 5.23931 7.69395 5.06524C8.25503 4.85878 8.84584 4.74454 9.44344 4.72694H15.3588C15.9564 4.74454 16.5473 4.85878 17.1083 5.06524C17.5877 5.24336 18.0205 5.52752 18.3745 5.89649C18.7248 6.24324 18.9952 6.66214 19.1671 7.12403C19.3736 7.68511 19.4878 8.27592 19.5054 8.87352V11.8312C19.5054 13.8224 19.5731 14.0253 19.5441 14.7889V14.7986ZM17.9976 7.60732C17.8825 7.2951 17.7011 7.01156 17.4658 6.77627C17.2305 6.54098 16.9469 6.35953 16.6347 6.24445C16.206 6.09585 15.7545 6.02387 15.3008 6.03181H9.50143C9.04547 6.03626 8.59389 6.12134 8.16757 6.28311C7.86013 6.39297 7.57959 6.56701 7.34461 6.79366C7.10963 7.02031 6.92558 7.29438 6.8047 7.59765C6.66433 8.02813 6.59576 8.47877 6.60172 8.93152V14.7309C6.6113 15.1864 6.69622 15.6371 6.85303 16.0648C6.96811 16.377 7.14956 16.6606 7.38485 16.8958C7.62014 17.1311 7.90368 17.3126 8.21589 17.4277C8.6283 17.5793 9.06227 17.6642 9.50143 17.679H15.3008C15.7568 17.6745 16.2084 17.5894 16.6347 17.4277C16.9469 17.3126 17.2305 17.1311 17.4658 16.8958C17.7011 16.6606 17.8825 16.377 17.9976 16.0648C18.1594 15.6385 18.2444 15.1869 18.2489 14.7309V8.93152C18.2492 8.4751 18.1639 8.02267 17.9976 7.59765V7.60732ZM12.4011 15.5235C11.9167 15.5235 11.4371 15.4279 10.9896 15.2423C10.5422 15.0566 10.1358 14.7845 9.7937 14.4415C9.45161 14.0985 9.18056 13.6914 8.99606 13.2435C8.81155 12.7956 8.71724 12.3156 8.71851 11.8312C8.71851 11.1005 8.93531 10.3863 9.34145 9.77889C9.7476 9.17149 10.3248 8.69825 11.0001 8.41907C11.6753 8.1399 12.4182 8.06735 13.1347 8.2106C13.8512 8.35385 14.5091 8.70647 15.0251 9.22381C15.5411 9.74116 15.892 10.4 16.0333 11.1168C16.1747 11.8337 16.1002 12.5764 15.8193 13.2509C15.5383 13.9254 15.0636 14.5014 14.4551 14.906C13.8466 15.3105 13.1318 15.5254 12.4011 15.5235ZM16.2674 8.86386C16.0538 8.84124 15.856 8.74035 15.7123 8.58062C15.5686 8.4209 15.4891 8.21364 15.4891 7.99878C15.4891 7.78391 15.5686 7.57666 15.7123 7.41693C15.856 7.2572 16.0538 7.15631 16.2674 7.1337C16.4811 7.15631 16.6788 7.2572 16.8225 7.41693C16.9662 7.57666 17.0458 7.78391 17.0458 7.99878C17.0458 8.21364 16.9662 8.4209 16.8225 8.58062C16.6788 8.74035 16.4811 8.84124 16.2674 8.86386Z" fill="#333333"/>
</svg>
