<svg width="38" height="38" viewBox="0 0 38 38" fill="none" xmlns="http://www.w3.org/2000/svg">
<path d="M26.8053 22.4C26.9547 21.168 27.0667 19.936 27.0667 18.6667C27.0667 17.3973 26.9547 16.1653 26.8053 14.9333H33.1147C33.4133 16.128 33.6 17.3787 33.6 18.6667C33.6 19.9547 33.4133 21.2053 33.1147 22.4M23.5013 32.7787C24.6213 30.7067 25.48 28.4667 26.0773 26.1333H31.584C29.7755 29.2474 26.9063 31.6064 23.5013 32.7787ZM23.0347 22.4H14.2987C14.112 21.168 14 19.936 14 18.6667C14 17.3973 14.112 16.1467 14.2987 14.9333H23.0347C23.2027 16.1467 23.3333 17.3973 23.3333 18.6667C23.3333 19.936 23.2027 21.168 23.0347 22.4ZM18.6667 33.5253C17.1173 31.2853 15.8667 28.8027 15.1013 26.1333H22.232C21.4667 28.8027 20.216 31.2853 18.6667 33.5253ZM11.2 11.2H5.74933C7.5392 8.07747 10.4063 5.71477 13.8133 4.55467C12.6933 6.62667 11.8533 8.86667 11.2 11.2ZM5.74933 26.1333H11.2C11.8533 28.4667 12.6933 30.7067 13.8133 32.7787C10.4134 31.6058 7.55038 29.2464 5.74933 26.1333ZM4.21867 22.4C3.92 21.2053 3.73333 19.9547 3.73333 18.6667C3.73333 17.3787 3.92 16.128 4.21867 14.9333H10.528C10.3787 16.1653 10.2667 17.3973 10.2667 18.6667C10.2667 19.936 10.3787 21.168 10.528 22.4M18.6667 3.78933C20.216 6.02933 21.4667 8.53067 22.232 11.2H15.1013C15.8667 8.53067 17.1173 6.02933 18.6667 3.78933ZM31.584 11.2H26.0773C25.4931 8.88805 24.628 6.65634 23.5013 4.55467C26.936 5.73067 29.792 8.10133 31.584 11.2ZM18.6667 0C8.344 0 0 8.4 0 18.6667C0 23.6174 1.96666 28.3653 5.46734 31.866C7.2007 33.5993 9.2585 34.9743 11.5232 35.9124C13.788 36.8505 16.2153 37.3333 18.6667 37.3333C23.6174 37.3333 28.3653 35.3667 31.866 31.866C35.3667 28.3653 37.3333 23.6174 37.3333 18.6667C37.3333 16.2153 36.8505 13.788 35.9124 11.5232C34.9743 9.2585 33.5993 7.2007 31.866 5.46734C30.1326 3.73398 28.0748 2.359 25.8101 1.42092C23.5453 0.482828 21.118 0 18.6667 0Z" fill="white"/>
</svg>
