<svg width="22" height="22" viewBox="0 0 22 22" fill="none" xmlns="http://www.w3.org/2000/svg">
<path d="M21 11C21 5.477 16.523 1 11 1C5.477 1 1 5.477 1 11C1 16.523 5.477 21 11 21" stroke="#000078" stroke-width="1.5" stroke-linecap="round" stroke-linejoin="round"/>
<path d="M12 1.0498C12 1.0498 15 4.9998 15 10.9998M10 20.9498C10 20.9498 7 16.9998 7 10.9998C7 4.9998 10 1.0498 10 1.0498M1.63 14.4998H11M1.63 7.4998H20.37" stroke="#000078" stroke-width="1.5" stroke-linecap="round" stroke-linejoin="round"/>
<path d="M20.879 16.9171C21.373 17.2211 21.342 17.9601 20.834 18.0181L18.267 18.3091L17.116 20.6211C16.888 21.0801 16.183 20.8551 16.066 20.2871L14.811 14.1711C14.712 13.6911 15.144 13.3891 15.561 13.6461L20.879 16.9171Z" stroke="#7B1085" stroke-width="1.5"/>
</svg>
