<svg width="35" height="36" viewBox="0 0 35 36" fill="none" xmlns="http://www.w3.org/2000/svg">
<g clip-path="url(#clip0_461_1295)">
<path d="M0.751136 17.4212C0.750316 20.3841 1.52449 23.2772 2.99658 25.8271L0.610352 34.5397L9.52653 32.2018C11.9926 33.5443 14.7557 34.2478 17.5635 34.248H17.5709C26.8402 34.248 34.3855 26.7053 34.3895 17.4345C34.3913 12.9421 32.6434 8.71771 29.4676 5.53953C26.2925 2.36163 22.0696 0.610571 17.5702 0.608521C8.29992 0.608521 0.7551 8.15075 0.751273 17.4212" fill="url(#paint0_linear_461_1295)"/>
<path d="M0.147717 17.4157C0.14676 20.4853 0.948685 23.4818 2.47326 26.1231L0.00146484 35.1479L9.23734 32.7263C11.7821 34.1137 14.6473 34.8453 17.5628 34.8464H17.5703C27.1721 34.8464 34.9885 27.0324 34.9926 17.4297C34.9942 12.7759 33.1834 8.39965 29.8943 5.10761C26.6047 1.81598 22.2308 0.00191358 17.5703 0C7.96686 0 0.151681 7.81286 0.147853 17.4157H0.147717ZM5.64788 25.6682L5.30303 25.1208C3.85336 22.8157 3.0882 20.152 3.08929 17.4168C3.09244 9.43516 9.58821 2.94144 17.5758 2.94144C21.4439 2.94308 25.0792 4.45098 27.8134 7.18685C30.5475 9.92299 32.052 13.5602 32.051 17.4286C32.0475 25.4102 25.5515 31.9048 17.5703 31.9048H17.5645C14.9658 31.9034 12.417 31.2055 10.1943 29.8867L9.6653 29.573L4.18454 31.0099L5.64788 25.668V25.6682Z" fill="url(#paint1_linear_461_1295)"/>
<path d="M13.2187 10.1349C12.8926 9.41002 12.5494 9.3954 12.2393 9.38269C11.9853 9.37175 11.695 9.37257 11.4049 9.37257C11.1146 9.37257 10.6429 9.48178 10.2442 9.91712C9.84509 10.3529 8.72046 11.4059 8.72046 13.5476C8.72046 15.6894 10.2804 17.7592 10.4979 18.05C10.7156 18.3401 13.5095 22.8759 17.9342 24.6208C21.6115 26.0709 22.3599 25.7825 23.158 25.7097C23.9562 25.6373 25.7337 24.657 26.0963 23.6405C26.4592 22.6241 26.4592 21.7529 26.3504 21.5708C26.2416 21.3894 25.9513 21.2805 25.5159 21.0629C25.0804 20.8452 22.9402 19.792 22.5413 19.6467C22.1421 19.5015 21.852 19.4291 21.5616 19.865C21.2713 20.3002 20.4377 21.2805 20.1836 21.5708C19.9298 21.8618 19.6757 21.898 19.2405 21.6803C18.8049 21.4619 17.4029 21.0027 15.7396 19.5199C14.4455 18.366 13.5718 16.941 13.3178 16.5052C13.0639 16.07 13.2906 15.834 13.5089 15.6171C13.7045 15.4221 13.9444 15.1088 14.1623 14.8547C14.3793 14.6005 14.4518 14.4191 14.5969 14.1288C14.7422 13.8382 14.6695 13.5839 14.5608 13.3662C14.4518 13.1485 13.6058 10.9957 13.2187 10.135" fill="white"/>
</g>
<defs>
<linearGradient id="paint0_linear_461_1295" x1="17.4999" y1="34.5397" x2="17.4999" y2="0.608521" gradientUnits="userSpaceOnUse">
<stop stop-color="#1FAF38"/>
<stop offset="1" stop-color="#60D669"/>
</linearGradient>
<linearGradient id="paint1_linear_461_1295" x1="17.497" y1="35.1479" x2="17.497" y2="0" gradientUnits="userSpaceOnUse">
<stop stop-color="#F9F9F9"/>
<stop offset="1" stop-color="white"/>
</linearGradient>
<clipPath id="clip0_461_1295">
<rect width="35" height="35.2645" fill="white"/>
</clipPath>
</defs>
</svg>
