<svg width="37" height="30" viewBox="0 0 37 30" fill="none" xmlns="http://www.w3.org/2000/svg">
<g clip-path="url(#clip0_461_1299)">
<path d="M36.7481 3.65316C35.3721 4.26274 33.9126 4.66287 32.4181 4.84024C33.9748 3.90723 35.17 2.42976 35.7329 0.669382C34.253 1.54754 32.634 2.16626 30.9456 2.49881C29.5704 1.03369 27.6112 0.118042 25.4427 0.118042C21.2792 0.118042 17.9035 3.49354 17.9035 7.6568C17.9035 8.24776 17.9703 8.82307 18.0987 9.37498C11.8332 9.06048 6.27817 6.05919 2.55975 1.49804C1.91094 2.61149 1.53917 3.90665 1.53917 5.28809C1.53917 7.90369 2.87023 10.2111 4.893 11.5631C3.6958 11.5256 2.52494 11.2023 1.47817 10.6201C1.47774 10.6516 1.47774 10.6832 1.47774 10.7149C1.47774 14.3676 4.0764 17.4147 7.52511 18.1073C6.41494 18.4092 5.25046 18.4534 4.12061 18.2365C5.07989 21.2316 7.86415 23.4111 11.163 23.4721C8.58286 25.494 5.33209 26.6993 1.80013 26.6993C1.19152 26.6993 0.591518 26.6636 0.00170898 26.594C3.33802 28.733 7.30075 29.9811 11.5582 29.9811C25.4252 29.9811 33.008 18.4934 33.008 8.5311C33.008 8.20412 33.0008 7.879 32.9862 7.55575C34.4621 6.48879 35.736 5.16725 36.7481 3.65316Z" fill="#55ACEE"/>
</g>
<defs>
<clipPath id="clip0_461_1299">
<rect width="36.75" height="30" fill="white"/>
</clipPath>
</defs>
</svg>
