<svg width="12" height="12" viewBox="0 0 12 12" fill="none" xmlns="http://www.w3.org/2000/svg">
<path d="M3.85714 9V3.526C3.85711 3.40966 3.89021 3.29661 3.95122 3.20459C4.01224 3.11258 4.09773 3.04681 4.19426 3.01763C4.29079 2.98844 4.39289 2.99749 4.48453 3.04335C4.57618 3.08921 4.65217 3.16929 4.70057 3.271L7.29943 8.729C7.34783 8.83071 7.42382 8.91079 7.51547 8.95665C7.60711 9.00251 7.70922 9.01156 7.80574 8.98237C7.90227 8.95319 7.98776 8.88742 8.04878 8.79541C8.1098 8.70339 8.14289 8.59034 8.14286 8.474V3M3 5H9M3 7H9" stroke="#605A5A" stroke-width="0.6" stroke-linecap="round" stroke-linejoin="round"/>
<circle cx="6" cy="6" r="5.7" stroke="#605A5A" stroke-width="0.6"/>
</svg>
