<svg width="27" height="27" viewBox="0 0 27 27" fill="none" xmlns="http://www.w3.org/2000/svg">
<rect width="27" height="27" rx="5" fill="#3EB7FB" fill-opacity="0.2"/>
<path d="M15.5101 17.7066V18.2403C15.5101 18.8064 15.2852 19.3494 14.8849 19.7497C14.4846 20.15 13.9417 20.3749 13.3755 20.3749C12.8094 20.3749 12.2664 20.15 11.8661 19.7497C11.4658 19.3494 11.2409 18.8064 11.2409 18.2403V17.7066M19.1016 16.6203C18.2451 15.572 17.6404 15.0384 17.6404 12.1483C17.6404 9.50178 16.2889 8.55889 15.1766 8.10095C15.0288 8.04025 14.8898 7.90083 14.8447 7.74907C14.6496 7.08501 14.1026 6.5 13.3755 6.5C12.6484 6.5 12.1011 7.08535 11.908 7.74974C11.863 7.90316 11.7239 8.04025 11.5761 8.10095C10.4625 8.55955 9.11233 9.49911 9.11233 12.1483C9.11066 15.0384 8.50597 15.572 7.64946 16.6203C7.29458 17.0546 7.60544 17.7066 8.22614 17.7066H18.5282C19.1456 17.7066 19.4545 17.0526 19.1016 16.6203Z" stroke="#0072BF" stroke-width="0.979187" stroke-linecap="round" stroke-linejoin="round"/>
</svg>
