<svg width="28" height="28" viewBox="0 0 28 28" fill="none" xmlns="http://www.w3.org/2000/svg">
<path d="M13.1671 2.34529L2.3447 13.1676C2.12399 13.3884 2 13.6878 2 14C2 14.3122 2.12399 14.6116 2.3447 14.8324L13.1676 25.6553C13.3884 25.876 13.6878 26 14 26C14.3122 26 14.6116 25.876 14.8324 25.6553L25.6547 14.8329C25.8754 14.6122 25.9994 14.3128 25.9994 14.0006C25.9994 13.6884 25.8754 13.389 25.6547 13.1682L14.8318 2.3447C14.611 2.12399 14.3116 2 13.9994 2C13.6872 2 13.3878 2.12399 13.1671 2.3447V2.34529Z" stroke="white" stroke-width="2.35461" stroke-linejoin="round"/>
<path d="M10.3421 14H17.4059M13.874 10.4681V17.532" stroke="white" stroke-width="2.35461" stroke-linecap="round"/>
</svg>
