<svg width="33" height="31" viewBox="0 0 33 31" fill="none" xmlns="http://www.w3.org/2000/svg">
<rect x="0.887207" y="0.86084" width="32.0475" height="30" rx="3" fill="#F9DBDB"/>
<path d="M16.3769 12.1998L18.8912 14.5535C18.9715 14.6296 19.08 14.6739 19.1943 14.6772C19.3085 14.6804 19.4197 14.6425 19.5049 14.5711C19.59 14.4997 19.6425 14.4004 19.6516 14.2937C19.6607 14.1871 19.6255 14.0812 19.5535 13.9982L19.5208 13.9642L16.2476 10.9002C16.1701 10.8276 16.0667 10.7844 15.9572 10.7788C15.8478 10.7732 15.7399 10.8056 15.6544 10.8698L15.6181 10.9002L12.345 13.9642C12.2637 14.0393 12.2164 14.1409 12.2129 14.2479C12.2094 14.3548 12.2499 14.4589 12.3262 14.5386C12.4025 14.6183 12.5085 14.6675 12.6225 14.676C12.7364 14.6844 12.8495 14.6516 12.9382 14.5842L12.9742 14.5535L15.4867 12.2015V15.1948C15.4867 16.2795 15.7434 17.2882 16.2345 18.1628L16.3139 18.2995C16.8448 19.1893 17.6291 19.9237 18.5796 20.4208C19.5471 20.9288 20.677 21.1948 21.8962 21.1948C22.0142 21.1948 22.1275 21.1509 22.2109 21.0728C22.2944 20.9946 22.3413 20.8887 22.3413 20.7782C22.3413 20.6677 22.2944 20.5617 22.2109 20.4835C22.1275 20.4054 22.0142 20.3615 21.8962 20.3615C20.8262 20.3615 19.8466 20.1308 19.0148 19.6938C18.2071 19.2719 17.5407 18.6481 17.0898 17.8922C16.6493 17.1565 16.4047 16.2978 16.379 15.3608L16.3769 15.1948V12.1998Z" fill="#B95353"/>
</svg>
