<svg width="23" height="23" viewBox="0 0 23 23" fill="none" xmlns="http://www.w3.org/2000/svg">
<ellipse cx="9.91307" cy="4.90435" rx="5.21739" ry="4.90435" fill="#DC5A3C"/>
<path d="M0 16.4974C0 13.6159 2.33591 11.28 5.21739 11.28H14.6087C17.4902 11.28 19.8261 13.6159 19.8261 16.4974V21.5792H0V16.4974Z" fill="#DC5A3C"/>
<path d="M22.9565 19.6175C22.9565 20.398 22.6267 21.1464 22.0396 21.6983C21.4525 22.2501 20.6563 22.5601 19.8261 22.5601C18.9958 22.5601 18.1996 22.2501 17.6125 21.6983C17.0254 21.1464 16.6956 20.398 16.6956 19.6175C16.6956 18.8371 17.0254 18.0886 17.6125 17.5368C18.1996 16.985 18.9958 16.6749 19.8261 16.6749C20.6563 16.6749 21.4525 16.985 22.0396 17.5368C22.6267 18.0886 22.9565 18.8371 22.9565 19.6175ZM21.403 18.503C21.3751 18.4768 21.3418 18.4562 21.3052 18.4424C21.2685 18.4286 21.2293 18.4219 21.1899 18.4226C21.1504 18.4234 21.1115 18.4316 21.0755 18.4468C21.0396 18.462 21.0072 18.4839 20.9804 18.5111L19.6214 20.1387L18.8024 19.3685C18.7468 19.3198 18.6732 19.2933 18.5972 19.2945C18.5211 19.2958 18.4486 19.3247 18.3948 19.3753C18.341 19.4258 18.3102 19.494 18.3089 19.5655C18.3076 19.6369 18.3358 19.7061 18.3876 19.7584L19.423 20.732C19.4509 20.7582 19.4841 20.7788 19.5207 20.7927C19.5572 20.8065 19.5964 20.8133 19.6358 20.8126C19.6752 20.8119 19.714 20.8038 19.75 20.7887C19.786 20.7736 19.8184 20.7518 19.8452 20.7247L21.4073 18.8892C21.4606 18.8372 21.49 18.7676 21.4893 18.6954C21.4885 18.6232 21.4577 18.5541 21.4034 18.503H21.403Z" fill="#F8B1A1"/>
</svg>
