<svg width="23" height="24" viewBox="0 0 23 24" fill="none" xmlns="http://www.w3.org/2000/svg">
<path d="M1.96546 20.5691C1.96546 21.479 2.32693 22.3517 2.97036 22.9951C3.61378 23.6385 4.48645 24 5.39639 24H10.3283C10.3852 24 10.4398 23.9774 10.48 23.9372C10.5202 23.897 10.5428 23.8424 10.5428 23.7856V13.9217C10.5428 13.8648 10.5202 13.8102 10.48 13.77C10.4398 13.7298 10.3852 13.7072 10.3283 13.7072H2.39433C2.28059 13.7072 2.1715 13.7524 2.09107 13.8328C2.01065 13.9133 1.96546 14.0223 1.96546 14.1361V20.5691ZM10.5428 11.7773V5.98764H12.2582V11.7773C12.2582 11.8342 12.2808 11.8887 12.321 11.929C12.3613 11.9692 12.4158 11.9918 12.4727 11.9918H19.9778C20.27 11.9918 20.5601 11.9419 20.8356 11.8443C21.3368 11.6664 21.7708 11.3377 22.0779 10.9034C22.385 10.4691 22.5503 9.95048 22.551 9.41857V8.56083C22.551 7.87838 22.2799 7.22388 21.7973 6.74131C21.3148 6.25874 20.6603 5.98764 19.9778 5.98764H17.8045C17.7859 5.98734 17.7676 5.98217 17.7515 5.97264C17.7355 5.96311 17.7222 5.94955 17.713 5.9333C17.7038 5.91705 17.699 5.89867 17.699 5.88C17.6991 5.86132 17.7041 5.84299 17.7134 5.82682C18.2097 4.98886 18.3709 3.99425 18.1647 3.04242C17.9584 2.09059 17.4 1.25192 16.6013 0.69456C15.8027 0.137204 14.8228 -0.0976284 13.8583 0.0371513C12.8937 0.171931 12.0158 0.666358 11.4005 1.42129C10.7852 0.666358 9.90728 0.171931 8.94273 0.0371513C7.97819 -0.0976284 6.99835 0.137204 6.19968 0.69456C5.40101 1.25192 4.84257 2.09059 4.63633 3.04242C4.43008 3.99425 4.59128 4.98886 5.08761 5.82682C5.09695 5.84299 5.1019 5.86132 5.10198 5.88C5.10205 5.89867 5.09725 5.91705 5.08804 5.9333C5.07883 5.94955 5.06554 5.96311 5.04948 5.97264C5.03342 5.98217 5.01515 5.98734 4.99647 5.98764H2.82319C2.14074 5.98764 1.48624 6.25874 1.00367 6.74131C0.521104 7.22388 0.25 7.87838 0.25 8.56083V9.41857C0.250757 9.95048 0.416026 10.4691 0.723148 10.9034C1.03027 11.3377 1.46421 11.6664 1.96546 11.8443C2.24091 11.9419 2.53098 11.9918 2.82319 11.9918H10.3283C10.3852 11.9918 10.4398 11.9692 10.48 11.929C10.5202 11.8887 10.5428 11.8342 10.5428 11.7773ZM12.2582 3.84331C12.2582 3.4192 12.384 3.00462 12.6196 2.65199C12.8552 2.29935 13.1901 2.02451 13.582 1.86221C13.9738 1.69991 14.4049 1.65745 14.8209 1.74019C15.2369 1.82293 15.6189 2.02715 15.9188 2.32704C16.2187 2.62693 16.423 3.00902 16.5057 3.42497C16.5884 3.84093 16.546 4.27209 16.3837 4.66391C16.2214 5.05574 15.9465 5.39063 15.5939 5.62626C15.2413 5.86188 14.8267 5.98764 14.4026 5.98764H12.2582V3.84331ZM8.24513 1.70434C8.5389 1.68329 8.83386 1.72297 9.11162 1.82093C9.38938 1.91888 9.64398 2.073 9.85955 2.27369C10.0751 2.47437 10.247 2.71731 10.3646 2.98736C10.4821 3.25741 10.5428 3.54879 10.5428 3.84331V5.98764H8.39845C7.84397 5.98622 7.31161 5.77007 6.91307 5.38456C6.51454 4.99905 6.28083 4.47416 6.261 3.92003C6.24116 3.36591 6.43674 2.82565 6.80668 2.41263C7.17663 1.99961 7.69218 1.74595 8.24513 1.70488V1.70434ZM12.4727 24H17.4046C18.3146 24 19.1872 23.6385 19.8307 22.9951C20.4741 22.3517 20.8356 21.479 20.8356 20.5691V14.1361C20.8356 14.0223 20.7904 13.9133 20.7099 13.8328C20.6295 13.7524 20.5204 13.7072 20.4067 13.7072H12.4727C12.4158 13.7072 12.3613 13.7298 12.321 13.77C12.2808 13.8102 12.2582 13.8648 12.2582 13.9217V23.7856C12.2582 23.8424 12.2808 23.897 12.321 23.9372C12.3613 23.9774 12.4158 24 12.4727 24Z" fill="#DC5A3C"/>
</svg>
