<svg width="17" height="17" viewBox="0 0 17 17" fill="none" xmlns="http://www.w3.org/2000/svg">
<circle cx="8.5" cy="8.5" r="8.5" fill="#DC5A3C"/>
<path d="M7.68546 12.2284C7.06355 12.0427 6.50031 11.6992 6.05057 11.2312C6.19527 11.0596 6.28548 10.8487 6.30964 10.6255C6.3338 10.4023 6.29082 10.177 6.18621 9.97841C6.08159 9.77979 5.92009 9.61691 5.72237 9.5106C5.52465 9.40428 5.29971 9.35938 5.07633 9.38164C5.02544 9.13236 4.99987 8.87859 5 8.62417C5 8.23124 5.06016 7.85222 5.17221 7.49614H5.18801C5.37972 7.4962 5.5683 7.4474 5.73591 7.35434C5.90353 7.26128 6.04467 7.12703 6.14599 6.96427C6.24731 6.80152 6.30548 6.61562 6.315 6.42414C6.32453 6.23265 6.28509 6.0419 6.20041 5.8699C6.64121 5.45945 7.17429 5.16109 7.75465 5C7.8491 5.18545 7.99301 5.34115 8.17046 5.44989C8.34791 5.55862 8.55198 5.61614 8.7601 5.61609C8.96821 5.61614 9.17228 5.55862 9.34973 5.44989C9.52719 5.34115 9.6711 5.18545 9.76555 5C10.3459 5.16109 10.879 5.45945 11.3198 5.8699C11.2345 6.04311 11.1951 6.23531 11.2053 6.42811C11.2156 6.62091 11.2751 6.80786 11.3783 6.97105C11.4815 7.13424 11.6248 7.26821 11.7946 7.36015C11.9644 7.45209 12.1549 7.49891 12.348 7.49614C12.4625 7.86119 12.5205 8.24159 12.5202 8.62417C12.5202 8.88362 12.4939 9.13705 12.4439 9.38183C12.2205 9.35957 11.9955 9.40447 11.7978 9.51078C11.6001 9.61709 11.4386 9.77998 11.334 9.9786C11.2294 10.1772 11.1864 10.4025 11.2106 10.6257C11.2347 10.8489 11.3249 11.0598 11.4696 11.2314C11.0199 11.6993 10.4566 12.0428 9.83473 12.2284C9.7617 12.0008 9.61828 11.8022 9.42515 11.6614C9.23202 11.5205 8.99914 11.4446 8.7601 11.4446C8.52105 11.4446 8.28818 11.5205 8.09504 11.6614C7.90191 11.8022 7.75849 12.0008 7.68546 12.2284Z" stroke="white" stroke-width="0.752019" stroke-linejoin="round"/>
<path d="M8.76011 9.94017C8.93293 9.94017 9.10407 9.90613 9.26373 9.84C9.4234 9.77386 9.56848 9.67692 9.69069 9.55472C9.81289 9.43251 9.90983 9.28743 9.97597 9.12776C10.0421 8.96809 10.0761 8.79696 10.0761 8.62414C10.0761 8.45132 10.0421 8.28018 9.97597 8.12051C9.90983 7.96085 9.81289 7.81577 9.69069 7.69356C9.56848 7.57136 9.4234 7.47442 9.26373 7.40828C9.10407 7.34215 8.93293 7.30811 8.76011 7.30811C8.41108 7.30811 8.07634 7.44676 7.82953 7.69356C7.58273 7.94037 7.44408 8.27511 7.44408 8.62414C7.44408 8.97317 7.58273 9.30791 7.82953 9.55472C8.07634 9.80152 8.41108 9.94017 8.76011 9.94017V9.94017Z" stroke="white" stroke-width="0.752019" stroke-linejoin="round"/>
</svg>
