<svg width="16" height="18" viewBox="0 0 16 18" fill="none" xmlns="http://www.w3.org/2000/svg">
<path d="M13 17.3334C12.3056 17.3334 11.7153 17.0904 11.2292 16.6042C10.7431 16.1181 10.5 15.5279 10.5 14.8334C10.5 14.7362 10.5069 14.6354 10.5208 14.5309C10.5347 14.4265 10.5556 14.3329 10.5833 14.2501L4.70833 10.8334C4.47222 11.0417 4.20833 11.2051 3.91667 11.3234C3.625 11.4417 3.31944 11.5006 3 11.5001C2.30556 11.5001 1.71528 11.257 1.22917 10.7709C0.743056 10.2848 0.5 9.69453 0.5 9.00008C0.5 8.30564 0.743056 7.71536 1.22917 7.22925C1.71528 6.74314 2.30556 6.50008 3 6.50008C3.31944 6.50008 3.625 6.55925 3.91667 6.67758C4.20833 6.79591 4.47222 6.95897 4.70833 7.16675L10.5833 3.75008C10.5556 3.66675 10.5347 3.57314 10.5208 3.46925C10.5069 3.36536 10.5 3.26453 10.5 3.16675C10.5 2.4723 10.7431 1.88203 11.2292 1.39591C11.7153 0.909804 12.3056 0.666748 13 0.666748C13.6944 0.666748 14.2847 0.909804 14.7708 1.39591C15.2569 1.88203 15.5 2.4723 15.5 3.16675C15.5 3.86119 15.2569 4.45147 14.7708 4.93758C14.2847 5.42369 13.6944 5.66675 13 5.66675C12.6806 5.66675 12.375 5.60786 12.0833 5.49008C11.7917 5.3723 11.5278 5.20897 11.2917 5.00008L5.41667 8.41675C5.44444 8.50008 5.46528 8.59397 5.47917 8.69841C5.49306 8.80286 5.5 8.90341 5.5 9.00008C5.5 9.09675 5.49306 9.19758 5.47917 9.30258C5.46528 9.40758 5.44444 9.50119 5.41667 9.58341L11.2917 13.0001C11.5278 12.7917 11.7917 12.6287 12.0833 12.5109C12.375 12.3931 12.6806 12.334 13 12.3334C13.6944 12.3334 14.2847 12.5765 14.7708 13.0626C15.2569 13.5487 15.5 14.139 15.5 14.8334C15.5 15.5279 15.2569 16.1181 14.7708 16.6042C14.2847 17.0904 13.6944 17.3334 13 17.3334Z" fill="#000078"/>
</svg>
