<svg width="21" height="22" viewBox="0 0 21 22" fill="none" xmlns="http://www.w3.org/2000/svg">
<path d="M9.80761 20.706H4.07874C2.52182 20.706 1.25858 19.4381 1.25858 17.8858V4.07874C1.25858 2.52182 2.52649 1.25858 4.07874 1.25858H9.90084C10.2504 1.25858 10.5301 0.978896 10.5301 0.629291C10.5301 0.279685 10.2504 0 9.90084 0H4.07874C1.82727 0 0 1.83193 0 4.07874V17.8858C0 20.1373 1.83193 21.9646 4.07874 21.9646H9.80761C10.1572 21.9646 10.4369 21.6849 10.4369 21.3353C10.4369 20.9857 10.1526 20.706 9.80761 20.706Z" fill="#DC5A3C"/>
<path d="M20.1746 10.5395L16.1751 6.54003C15.928 6.29297 15.5318 6.29297 15.2848 6.54003C15.0377 6.78708 15.0377 7.1833 15.2848 7.43036L18.2121 10.3577H5.44452C5.09492 10.3577 4.81523 10.6374 4.81523 10.987C4.81523 11.3366 5.09492 11.6163 5.44452 11.6163H18.2121L15.2848 14.5437C15.0377 14.7907 15.0377 15.1869 15.2848 15.434C15.406 15.5552 15.5691 15.6205 15.7276 15.6205C15.8861 15.6205 16.0492 15.5599 16.1704 15.434L20.1699 11.4345C20.4216 11.1828 20.4216 10.7819 20.1746 10.5395Z" fill="#DC5A3C"/>
</svg>
