<svg width="26" height="26" viewBox="0 0 26 26" fill="none" xmlns="http://www.w3.org/2000/svg">
<path d="M16.6111 2.88892H5.05559C4.6725 2.88892 4.3051 3.0411 4.03421 3.31198C3.76333 3.58287 3.61115 3.95027 3.61115 4.33336V21.6667C3.61115 22.0498 3.76333 22.4172 4.03421 22.6881C4.3051 22.959 4.6725 23.1111 5.05559 23.1111H16.6111C16.9942 23.1111 17.3616 22.959 17.6325 22.6881C17.9034 22.4172 18.0556 22.0498 18.0556 21.6667V17.3334H11.2884C11.0968 17.3334 10.9131 17.2573 10.7777 17.1218C10.6422 16.9864 10.5661 16.8027 10.5661 16.6111C10.5661 16.4196 10.6422 16.2359 10.7777 16.1005C10.9131 15.965 11.0968 15.8889 11.2884 15.8889H18.0556V4.33336C18.0556 3.95027 17.9034 3.58287 17.6325 3.31198C17.3616 3.0411 16.9942 2.88892 16.6111 2.88892Z" fill="#DC5A3C"/>
<path d="M20.3378 12.4801C20.1997 12.3617 20.0219 12.2999 19.8402 12.3069C19.6584 12.314 19.486 12.3893 19.3574 12.5179C19.2287 12.6466 19.1534 12.819 19.1464 13.0007C19.1393 13.1825 19.2012 13.3602 19.3195 13.4984L21.7606 15.8889H18.0556V17.3334H21.7606L19.3195 19.8323C19.2439 19.897 19.1825 19.9767 19.1391 20.0663C19.0958 20.1559 19.0714 20.2535 19.0676 20.353C19.0637 20.4524 19.0805 20.5516 19.1168 20.6443C19.1531 20.737 19.2082 20.8211 19.2786 20.8915C19.349 20.9619 19.4331 21.017 19.5258 21.0533C19.6185 21.0896 19.7177 21.1064 19.8171 21.1025C19.9166 21.0987 20.0142 21.0743 20.1038 21.031C20.1934 20.9876 20.2731 20.9262 20.3378 20.8506L24.5556 16.6617L20.3378 12.4801Z" fill="#848688" fill-opacity="0.5"/>
</svg>
