<svg width="73" height="72" viewBox="0 0 73 72" fill="none" xmlns="http://www.w3.org/2000/svg">
<path d="M36.7486 0C16.8676 0 0.748596 16.119 0.748596 36C0.748596 55.881 16.8676 72 36.7486 72C56.6296 72 72.7486 55.881 72.7486 36C72.7486 16.119 56.6296 0 36.7486 0ZM56.8696 29.121L34.1896 51.801C33.6256 52.365 32.8636 52.68 32.0686 52.68C31.2736 52.68 30.5086 52.365 29.9476 51.801L19.5886 41.442C18.4156 40.269 18.4156 38.373 19.5886 37.2C20.7616 36.027 22.6576 36.027 23.8306 37.2L32.0686 45.438L52.6276 24.879C53.8006 23.706 55.6966 23.706 56.8696 24.879C58.0426 26.052 58.0426 27.948 56.8696 29.121Z" fill="#DC5A3C"/>
</svg>
