<svg width="26" height="25" viewBox="0 0 26 25" fill="none" xmlns="http://www.w3.org/2000/svg">
<path d="M25.0312 9.56175L24.7072 9.23775C24.9168 8.80221 24.9887 8.31313 24.9132 7.83571C24.8378 7.35828 24.6186 6.91519 24.2849 6.5655C24.0573 6.33894 23.7839 6.16354 23.4831 6.05102C23.1823 5.9385 22.8609 5.89145 22.5404 5.913C22.2393 5.9306 21.9435 6.00092 21.6667 6.12075V0.666748H0.666687V24.6667H21.6667V12.5317L23.9842 10.2142L24.1822 10.4115C24.2081 10.4373 24.2286 10.468 24.2426 10.5018C24.2566 10.5356 24.2638 10.5718 24.2638 10.6084C24.2638 10.6449 24.2566 10.6812 24.2426 10.7149C24.2286 10.7487 24.2081 10.7794 24.1822 10.8052L22.4174 12.5707C22.3049 12.6832 22.2416 12.8358 22.2415 12.995C22.2414 13.1541 22.3046 13.3068 22.4171 13.4194C22.5295 13.532 22.6821 13.5952 22.8413 13.5953C23.0004 13.5954 23.1531 13.5322 23.2657 13.4197L25.0312 11.6542C25.3085 11.3767 25.4642 11.0003 25.4642 10.608C25.4642 10.2156 25.3085 9.83934 25.0312 9.56175ZM5.16669 5.31675H17.1682V6.51675H5.16669V5.31675ZM5.16669 8.31675H17.1682V9.51675H5.16669V8.31675ZM5.16669 11.3167H13.0417V12.5167H5.16669V11.3167ZM16.2599 21.5887H10.4077C9.73119 21.5887 9.09819 21.5242 8.76219 20.9707C8.41794 20.4045 8.75994 19.7467 9.00969 19.2652C9.05394 19.1805 8.95569 19.0755 8.84319 19.1917C8.51319 19.5307 7.98819 20.1412 7.56594 20.6317C7.11969 21.1507 6.94269 21.354 6.84819 21.4395C6.74821 21.5556 6.61242 21.6352 6.46222 21.6656C6.31202 21.696 6.15598 21.6756 6.01869 21.6075C5.89543 21.5363 5.79886 21.4267 5.74374 21.2955C5.68862 21.1643 5.67798 21.0186 5.71344 20.8807C5.74494 20.6932 6.28044 18.6067 6.76569 16.731C6.12069 17.8762 4.07319 21.306 3.97719 21.4672C3.90578 21.5869 3.78976 21.6733 3.65467 21.7074C3.51957 21.7415 3.37646 21.7205 3.25681 21.6491C3.13717 21.5777 3.05079 21.4617 3.01668 21.3266C2.98257 21.1915 3.00353 21.0484 3.07494 20.9287C3.10119 20.886 5.66619 16.5877 5.98944 15.9637C6.09482 15.7143 6.29094 15.5142 6.53819 15.4038C6.78544 15.2934 7.06537 15.281 7.32144 15.369C7.55257 15.4629 7.73951 15.641 7.84458 15.8673C7.94965 16.0936 7.96506 16.3513 7.88769 16.5885C7.61769 17.6295 7.34244 18.6975 7.13019 19.5285C7.47294 19.1325 7.83144 18.726 8.09019 18.4597C8.28932 18.2203 8.56143 18.0528 8.86485 17.9828C9.16827 17.9127 9.48627 17.9441 9.77019 18.072C9.9466 18.1618 10.0879 18.3081 10.1716 18.4875C10.2553 18.6669 10.2767 18.8691 10.2322 19.062C10.1605 19.3009 10.063 19.5313 9.94119 19.749C9.74094 20.1652 9.83619 20.538 10.4077 20.538H16.2599C16.3992 20.538 16.5327 20.5933 16.6312 20.6918C16.7296 20.7902 16.7849 20.9238 16.7849 21.063C16.7849 21.2022 16.7296 21.3358 16.6312 21.4342C16.5327 21.5327 16.3992 21.588 16.2599 21.588V21.5887ZM14.6999 17.8012L12.7469 18.3165C12.7185 18.3246 12.6885 18.3248 12.6599 18.3171C12.6314 18.3094 12.6055 18.2942 12.5849 18.273C12.5634 18.2527 12.5479 18.2268 12.5401 18.1982C12.5323 18.1696 12.5325 18.1395 12.5407 18.111L13.0387 16.1617L17.9812 11.2192L19.6312 12.8692L14.6999 17.8012ZM23.2994 9.201L20.4794 12.021L18.8294 10.371L21.6494 7.551C21.9016 7.2917 22.241 7.1351 22.6019 7.1115L22.6694 7.10925C22.8111 7.10672 22.9518 7.1324 23.0834 7.18481C23.215 7.23722 23.3348 7.3153 23.4359 7.4145C23.6527 7.67039 23.7599 8.00138 23.7344 8.33577C23.7088 8.67015 23.5526 8.98101 23.2994 9.201Z" fill="#DC5A3C"/>
</svg>
