<svg width="26" height="21" viewBox="0 0 26 21" fill="none" xmlns="http://www.w3.org/2000/svg">
<g clip-path="url(#clip0_234_1384)">
<path d="M25.0075 2.64224C24.0955 3.04626 23.1282 3.31147 22.1376 3.42903C23.1694 2.81063 23.9616 1.83138 24.3346 0.664617C23.3538 1.24665 22.2807 1.65674 21.1617 1.87714C20.2502 0.906076 18.9516 0.299194 17.5144 0.299194C14.7548 0.299194 12.5175 2.53645 12.5175 5.29581C12.5175 5.68749 12.5617 6.0688 12.6469 6.43461C8.49414 6.22616 4.81232 4.23693 2.34779 1.21385C1.91777 1.95183 1.67136 2.81025 1.67136 3.72585C1.67136 5.45945 2.55357 6.98878 3.89425 7.88488C3.10075 7.86003 2.32472 7.64572 1.63093 7.25983C1.63064 7.28076 1.63064 7.30169 1.63064 7.32272C1.63064 9.74368 3.35301 11.7633 5.63878 12.2223C4.90298 12.4224 4.13117 12.4517 3.38231 12.3079C4.01812 14.2931 5.8635 15.7376 8.04994 15.7781C6.33985 17.1182 4.18527 17.917 1.84432 17.917C1.44094 17.917 1.04326 17.8933 0.652344 17.8472C2.86362 19.2649 5.49008 20.0922 8.31186 20.0922C17.5028 20.0922 22.5286 12.4782 22.5286 5.87529C22.5286 5.65857 22.5239 5.44308 22.5142 5.22884C23.4924 4.52166 24.3367 3.64576 25.0075 2.64224Z" fill="#55ACEE"/>
</g>
<defs>
<clipPath id="clip0_234_1384">
<rect width="24.3576" height="19.8837" fill="white" transform="translate(0.651184 0.220947)"/>
</clipPath>
</defs>
</svg>
