<svg width="14" height="10" viewBox="0 0 14 10" fill="none" xmlns="http://www.w3.org/2000/svg">
<path d="M7 7C8.10457 7 9 6.10457 9 5C9 3.89543 8.10457 3 7 3C5.89543 3 5 3.89543 5 5C5 6.10457 5.89543 7 7 7Z" stroke="#605A5A" stroke-width="0.666667" stroke-linecap="round" stroke-linejoin="round"/>
<path d="M11.6667 1H2.33333C1.59695 1 1 1.59695 1 2.33333V7.66667C1 8.40305 1.59695 9 2.33333 9H11.6667C12.403 9 13 8.40305 13 7.66667V2.33333C13 1.59695 12.403 1 11.6667 1Z" stroke="#605A5A" stroke-width="0.666667" stroke-linecap="round" stroke-linejoin="round"/>
<path d="M11 5H11.0067M3 5H3.00667" stroke="#605A5A" stroke-width="1.33333" stroke-linecap="round" stroke-linejoin="round"/>
</svg>
