<svg width="17" height="17" viewBox="0 0 17 17" fill="none" xmlns="http://www.w3.org/2000/svg">
<circle cx="8.5" cy="8.5" r="8.5" fill="#DC5A3C"/>
<path d="M13.3771 5.47381C13.3335 5.42978 13.2816 5.39486 13.2243 5.37109C13.1671 5.34732 13.1057 5.33517 13.0437 5.33534H12.7108V4.55073C12.7106 4.42591 12.661 4.30625 12.5727 4.218C12.4845 4.12974 12.3648 4.0801 12.24 4.07996H5.46538C5.09795 4.07996 4.74558 4.22592 4.48577 4.48573C4.22597 4.74554 4.08001 5.09791 4.08 5.46533V10.8546C4.08001 11.222 4.22597 11.5744 4.48577 11.8342C4.74558 12.094 5.09795 12.24 5.46538 12.24H13.0251C13.1497 12.2397 13.269 12.1902 13.3572 12.1023C13.4454 12.0144 13.4953 11.8952 13.4959 11.7707L13.5144 5.80772C13.5148 5.74574 13.5029 5.6843 13.4793 5.62698C13.4557 5.56965 13.421 5.51759 13.3771 5.47381ZM12.8687 11.6123H5.46538C5.26443 11.6123 5.07171 11.5324 4.92961 11.3903C4.78752 11.2482 4.70769 11.0555 4.70769 10.8546V5.46533C4.70769 5.26438 4.78752 5.07166 4.92961 4.92957C5.07171 4.78748 5.26443 4.70765 5.46538 4.70765H12.0831V5.33534H5.49231V5.96303H12.8863L12.8687 11.6123Z" fill="white"/>
<path d="M11.4552 8.31689H12.0829V8.94459H11.4552V8.31689Z" fill="white"/>
</svg>
