<svg width="17" height="15" viewBox="0 0 17 15" fill="none" xmlns="http://www.w3.org/2000/svg">
<path d="M16.1665 2.931C16.0943 2.85816 16.0083 2.80039 15.9136 2.76107C15.8189 2.72174 15.7173 2.70164 15.6148 2.70192H15.064V1.40385C15.0638 1.19735 14.9816 0.999387 14.8356 0.853375C14.6896 0.707363 14.4916 0.625232 14.2852 0.625H3.07714C2.46927 0.625009 1.8863 0.866487 1.45647 1.29632C1.02664 1.72614 0.785165 2.30911 0.785156 2.91698V11.833C0.785165 12.4409 1.02664 13.0239 1.45647 13.4537C1.8863 13.8835 2.46927 14.125 3.07714 14.125H15.5841C15.7901 14.1246 15.9876 14.0428 16.1335 13.8973C16.2794 13.7519 16.3619 13.5547 16.363 13.3487L16.3936 3.48343C16.3942 3.38089 16.3745 3.27925 16.3355 3.18441C16.2965 3.08957 16.239 3.00343 16.1665 2.931V2.931ZM15.3253 13.0865H3.07714C2.74468 13.0865 2.42585 12.9545 2.19077 12.7194C1.95568 12.4843 1.82362 12.1655 1.82362 11.833V2.91698C1.82362 2.58453 1.95568 2.26569 2.19077 2.03061C2.42585 1.79553 2.74468 1.66346 3.07714 1.66346H14.0255V2.70192H3.12169V3.74038H15.3543L15.3253 13.0865Z" fill="white"/>
</svg>
