<svg width="75" height="75" viewBox="0 0 75 75" fill="none" xmlns="http://www.w3.org/2000/svg">
<circle cx="37.5" cy="37.5" r="37.5" fill="#DC5A3C"/>
<path d="M40.5197 27.6923C43.0687 27.6923 45.1351 25.6259 45.1351 23.0769C45.1351 20.5279 43.0687 18.4615 40.5197 18.4615C37.9707 18.4615 35.9043 20.5279 35.9043 23.0769C35.9043 25.6259 37.9707 27.6923 40.5197 27.6923Z" fill="white"/>
<path d="M45.239 46.4194C45.1114 46.3336 44.9681 46.2742 44.8173 46.2445C44.6665 46.2149 44.5113 46.2157 44.3609 46.2469C44.2104 46.2781 44.0677 46.339 43.9411 46.4261C43.8144 46.5131 43.7065 46.6246 43.6236 46.754C42.5081 48.4059 41.1417 49.8736 39.5736 51.104C39.1928 51.3924 37.7736 52.4886 37.1736 52.2578C36.7582 52.1309 37.0005 51.3117 37.0813 50.9655L37.6928 49.154C37.9466 48.4155 42.3659 35.3078 42.8505 33.8078C43.5659 31.6155 43.2543 29.4578 39.989 29.9771C39.1005 30.0694 30.0889 31.2348 29.9274 31.2463C29.7759 31.2561 29.6278 31.2957 29.4916 31.3628C29.3553 31.4299 29.2337 31.5232 29.1335 31.6373C29.0333 31.7514 28.9566 31.8841 28.9077 32.0279C28.8588 32.1716 28.8387 32.3236 28.8486 32.4751C28.8584 32.6267 28.898 32.7748 28.9651 32.911C29.0322 33.0472 29.1254 33.1689 29.2396 33.2691C29.3537 33.3692 29.4864 33.446 29.6301 33.4949C29.7739 33.5437 29.9259 33.5638 30.0774 33.554C30.0774 33.554 33.5389 33.104 33.9197 33.0694C34.1148 33.0503 34.3111 33.0881 34.4852 33.1782C34.6592 33.2683 34.8034 33.4068 34.9005 33.5771C35.1096 34.2234 35.0809 34.9231 34.8197 35.5501C34.5197 36.704 29.7774 50.0655 29.6274 50.8386C29.4665 51.4855 29.5112 52.1665 29.7552 52.7869C29.9992 53.4072 30.4304 53.9362 30.9889 54.3001C32.0372 54.9988 33.2854 55.3352 34.5428 55.2578C35.7654 55.2429 36.9745 55.0003 38.1082 54.5424C40.9813 53.3886 43.9813 50.3194 45.562 47.9078C45.6981 47.6628 45.7404 47.3766 45.681 47.1027C45.6215 46.8288 45.4644 46.5859 45.239 46.4194Z" fill="white"/>
</svg>
