<svg width="24" height="24" viewBox="0 0 24 24" fill="none" xmlns="http://www.w3.org/2000/svg">
<path d="M5.24995 3.90751C5.13001 3.90598 5.01352 3.86714 4.91666 3.79639C4.8198 3.72563 4.74738 3.62648 4.70945 3.51268C4.67151 3.39889 4.66996 3.2761 4.70499 3.16138C4.74003 3.04666 4.80991 2.9457 4.90495 2.87251C6.97435 1.40847 9.46652 0.662928 11.9999 0.750012C13.995 0.750012 16.86 1.08751 19.125 2.71501C19.2488 2.80387 19.3325 2.93811 19.3578 3.08844C19.3831 3.23878 19.3479 3.39301 19.26 3.51751C19.1686 3.6407 19.0325 3.72308 18.881 3.74693C18.7295 3.77077 18.5747 3.73417 18.45 3.64501C16.5266 2.42266 14.2773 1.81327 11.9999 1.89751C9.72632 1.82027 7.48909 2.48354 5.62495 3.78751C5.51882 3.872 5.38541 3.91469 5.24995 3.90751Z" fill="#292D32"/>
<path d="M21.1725 9.19492C21.0798 9.19407 20.9885 9.17119 20.9064 9.12816C20.8242 9.08512 20.7535 9.02318 20.7 8.94742C19.4025 7.11742 17.085 4.67992 12 4.67992C10.3093 4.63735 8.63331 5.0038 7.11466 5.74811C5.59601 6.49242 4.27962 7.59256 3.27749 8.95492C3.1875 9.0776 3.05272 9.15981 2.90246 9.18369C2.75219 9.20756 2.59858 9.17117 2.47499 9.08242C2.41016 9.0373 2.35541 8.9792 2.31422 8.9118C2.27303 8.8444 2.2463 8.76918 2.23573 8.6909C2.22515 8.61263 2.23095 8.53301 2.25278 8.45709C2.2746 8.38118 2.31196 8.31063 2.36249 8.24992C3.4735 6.74905 4.92888 5.5371 6.60607 4.71613C8.28325 3.89515 10.1332 3.48919 12 3.53242C16.2075 3.53242 19.3575 5.09242 21.63 8.28742C21.7172 8.41284 21.7512 8.5677 21.7245 8.7181C21.6978 8.8685 21.6126 9.0022 21.4875 9.08992C21.3945 9.15386 21.2853 9.19025 21.1725 9.19492Z" fill="#292D32"/>
<path d="M9.20999 23.25C9.09364 23.2494 8.98012 23.2141 8.88393 23.1487C8.78774 23.0832 8.71325 22.9906 8.66999 22.8825C8.64 22.8119 8.62479 22.7358 8.6253 22.6591C8.6258 22.5823 8.642 22.5065 8.67292 22.4362C8.70383 22.366 8.7488 22.3028 8.80505 22.2506C8.8613 22.1983 8.92764 22.1582 8.99999 22.1325C12.2775 20.8725 14.25 18.2925 14.25 15.225C14.2724 14.9238 14.2296 14.6213 14.1244 14.3382C14.0193 14.055 13.8543 13.7979 13.6407 13.5843C13.4271 13.3708 13.17 13.2058 12.8868 13.1006C12.6037 12.9955 12.3012 12.9526 12 12.975C10.605 12.975 9.92999 13.725 9.74999 15.4875C9.66629 16.3119 9.26635 17.0717 8.6342 17.6074C8.00205 18.143 7.18689 18.4128 6.35999 18.36C5.91531 18.3665 5.47416 18.2803 5.06464 18.1069C4.65512 17.9334 4.2862 17.6766 3.9814 17.3528C3.6766 17.0289 3.44259 16.6451 3.29428 16.2259C3.14598 15.8066 3.08662 15.361 3.11999 14.9175C3.16144 12.5987 4.1184 10.3904 5.78204 8.77453C7.44568 7.15866 9.68093 6.26643 12 6.29255C14.3779 6.29251 16.6591 7.23351 18.3455 8.91C20.0318 10.5865 20.9861 12.8622 21 15.24C20.9464 16.9143 20.5933 18.5653 19.9575 20.115C19.8964 20.2532 19.7842 20.3624 19.6444 20.4198C19.5046 20.4771 19.348 20.4781 19.2075 20.4225C19.1378 20.3938 19.0745 20.3516 19.0212 20.2982C18.9679 20.2449 18.9258 20.1815 18.8972 20.1117C18.8686 20.042 18.8541 19.9672 18.8546 19.8919C18.8551 19.8165 18.8705 19.7419 18.9 19.6725C19.4752 18.2624 19.7976 16.762 19.8525 15.24C19.8426 13.1653 19.0104 11.1792 17.5384 9.71703C16.0664 8.25488 14.0747 7.43606 12 7.44005C10.9961 7.42017 9.99807 7.59852 9.06316 7.96488C8.12825 8.33124 7.27479 8.87842 6.55165 9.57508C5.82851 10.2718 5.2499 11.1042 4.84894 12.0248C4.44798 12.9454 4.23255 13.9361 4.21499 14.9401C4.18425 15.2318 4.21567 15.5268 4.30717 15.8056C4.39868 16.0844 4.54819 16.3406 4.74588 16.5574C4.94356 16.7743 5.18493 16.9467 5.4541 17.0635C5.72326 17.1803 6.01411 17.2388 6.30749 17.235C6.57758 17.2619 6.85032 17.235 7.10995 17.1559C7.36959 17.0767 7.61097 16.9469 7.82017 16.774C8.02936 16.6011 8.20223 16.3884 8.32878 16.1483C8.45534 15.9082 8.53307 15.6454 8.55749 15.375C8.82749 13.0426 9.97499 11.8575 11.9775 11.8575C12.4313 11.8346 12.8848 11.9076 13.3085 12.0718C13.7322 12.2359 14.1166 12.4876 14.4364 12.8103C14.7563 13.133 15.0046 13.5195 15.165 13.9447C15.3254 14.3698 15.3944 14.824 15.3675 15.2776C15.3675 18.8326 13.1175 21.8175 9.36749 23.25C9.31514 23.2556 9.26235 23.2556 9.20999 23.25Z" fill="#292D32"/>
<path d="M14.8275 22.7098C14.6837 22.7082 14.5453 22.6549 14.4375 22.5598C14.384 22.5068 14.3415 22.4437 14.3125 22.3742C14.2835 22.3047 14.2686 22.2301 14.2686 22.1548C14.2686 22.0795 14.2835 22.0049 14.3125 21.9354C14.3415 21.8659 14.384 21.8028 14.4375 21.7498C16.1249 20.0008 17.0754 17.6701 17.0925 15.2398C17.0925 14.0698 16.7325 10.2523 12.0675 10.2523C11.3878 10.2284 10.7101 10.3401 10.074 10.5809C9.43784 10.8217 8.85604 11.1868 8.36252 11.6548C7.92095 12.0917 7.57186 12.613 7.33606 13.1877C7.10026 13.7624 6.98257 14.3787 6.99002 14.9998C6.98805 15.1517 6.92634 15.2966 6.81825 15.4033C6.71016 15.51 6.56439 15.5698 6.41252 15.5698C6.33704 15.5708 6.26211 15.5568 6.19209 15.5286C6.12206 15.5004 6.05834 15.4586 6.00461 15.4055C5.95089 15.3525 5.90823 15.2893 5.87912 15.2197C5.85 15.15 5.83501 15.0753 5.83502 14.9998C5.82333 14.2315 5.96451 13.4684 6.25035 12.7551C6.53618 12.0418 6.96098 11.3925 7.50002 10.8448C8.09755 10.2713 8.80302 9.82217 9.57551 9.52348C10.348 9.22479 11.1721 9.08248 12 9.10481C16.56 9.10481 18.18 12.4048 18.18 15.2398C18.1694 17.9448 17.1227 20.543 15.255 22.4998C15.2035 22.564 15.1385 22.616 15.0646 22.6523C14.9907 22.6886 14.9098 22.7082 14.8275 22.7098Z" fill="#292D32"/>
<path d="M6.49499 20.8048C6.10404 20.8041 5.71343 20.7816 5.32499 20.7373C5.25014 20.729 5.17766 20.7059 5.11171 20.6695C5.04576 20.6332 4.98762 20.5841 4.94061 20.5253C4.8936 20.4664 4.85864 20.3989 4.83773 20.3266C4.81682 20.2542 4.81037 20.1784 4.81874 20.1036C4.82711 20.0287 4.85014 19.9562 4.88652 19.8903C4.9229 19.8243 4.97192 19.7662 5.03077 19.7192C5.08962 19.6722 5.15715 19.6372 5.22951 19.6163C5.30187 19.5954 5.37764 19.589 5.45249 19.5973C7.31999 19.8073 8.78999 19.4773 9.83249 18.6073C10.313 18.1776 10.7016 17.655 10.9749 17.0712C11.2481 16.4873 11.4004 15.8541 11.4225 15.2098C11.4262 15.1339 11.4453 15.0595 11.4786 14.9911C11.5118 14.9227 11.5586 14.8618 11.6161 14.8121C11.6736 14.7623 11.7406 14.7247 11.813 14.7015C11.8854 14.6784 11.9618 14.6701 12.0375 14.6773C12.1887 14.6889 12.3295 14.7586 12.4302 14.872C12.531 14.9853 12.5838 15.1333 12.5775 15.2848C12.5455 16.0869 12.3508 16.8741 12.0052 17.5987C11.6597 18.3233 11.1706 18.9701 10.5675 19.4998C9.40981 20.408 7.96489 20.871 6.49499 20.8048Z" fill="#292D32"/>
</svg>
